<?xml version="1.0" standalone="no"?>
<!DOCTYPE svg PUBLIC "-//W3C//DTD SVG 20010904//EN"
 "http://www.w3.org/TR/2001/REC-SVG-20010904/DTD/svg10.dtd">
<svg version="1.0" xmlns="http://www.w3.org/2000/svg"
 width="143.000000pt" height="142.000000pt" viewBox="0 0 143.000000 142.000000"
 preserveAspectRatio="xMidYMid meet">

<g transform="translate(0.000000,142.000000) scale(0.100000,-0.100000)"
fill="#000000" stroke="none">
<path d="M20 1215 l1 -205 77 59 c167 127 334 191 549 211 220 20 450 -51 686
-211 l87 -60 -2 203 -3 203 -2 -191 -3 -191 -91 59 c-113 74 -246 138 -364
174 -81 25 -105 28 -240 28 -133 0 -161 -3 -249 -27 -106 -29 -239 -88 -312
-136 -49 -34 -59 -37 -48 -18 4 7 3 9 -2 4 -5 -5 -9 -13 -9 -19 0 -6 -14 -21
-30 -34 -29 -22 -31 -22 -31 -4 0 10 5 16 11 12 5 -3 4 2 -4 11 -11 15 -11 22
3 50 12 25 16 27 16 12 l1 -20 8 20 c5 11 6 25 4 32 -3 7 9 25 25 40 16 15 33
38 37 51 3 12 11 22 16 22 5 0 9 5 9 11 0 6 7 17 15 26 8 8 13 18 10 23 -3 4
2 11 11 14 8 3 12 10 9 16 -3 5 3 10 14 10 11 0 22 4 25 9 7 10 -75 21 -162
21 l-63 0 1 -205z"/>
<path d="M478 1209 c-38 -28 -84 -70 -104 -95 l-36 -44 -89 0 c-53 0 -89 -4
-89 -10 0 -6 38 -10 95 -10 52 0 95 4 95 8 0 17 117 126 174 164 36 23 52 38
40 38 -10 0 -49 -23 -86 -51z"/>
<path d="M710 1160 l0 -90 -70 0 c-40 0 -70 -4 -70 -10 0 -6 32 -10 75 -10
l75 0 0 100 c0 55 -2 100 -5 100 -3 0 -5 -40 -5 -90z"/>
<path d="M580 1188 c-16 -29 -35 -68 -42 -85 -12 -33 -12 -33 -80 -33 -39 0
-68 -4 -68 -10 0 -6 30 -10 70 -10 l70 0 29 65 c17 36 39 79 51 95 12 17 17
30 11 30 -6 0 -24 -24 -41 -52z"/>
<path d="M961 1212 c25 -16 63 -44 84 -63 33 -28 36 -28 15 -5 -32 36 -114 96
-131 96 -7 0 7 -13 32 -28z"/>
<path d="M750 1060 c0 -6 30 -10 70 -10 40 0 70 4 70 10 0 6 -30 10 -70 10
-40 0 -70 -4 -70 -10z"/>
<path d="M920 1060 c0 -6 32 -10 75 -10 43 0 75 4 75 10 0 6 -32 10 -75 10
-43 0 -75 -4 -75 -10z"/>
<path d="M1120 1060 c0 -6 30 -10 70 -10 40 0 70 4 70 10 0 6 -30 10 -70 10
-40 0 -70 -4 -70 -10z"/>
<path d="M281 968 c-10 -24 -21 -53 -25 -64 -6 -21 -11 -22 -106 -17 -67 3
-100 1 -100 -6 0 -7 39 -11 110 -11 98 0 110 2 110 18 0 9 11 41 25 70 13 28
20 52 14 52 -5 0 -18 -19 -28 -42z"/>
<path d="M507 1003 c-3 -4 -8 -26 -12 -48 -14 -81 -7 -76 -106 -74 -49 1 -92
-1 -96 -5 -3 -3 41 -6 98 -6 l105 0 11 67 c11 64 11 84 0 66z"/>
<path d="M708 948 l-3 -63 -95 -6 -95 -5 103 -2 102 -2 0 70 c0 87 -8 92 -12
8z"/>
<path d="M907 960 c3 -30 6 -59 7 -65 0 -6 -38 -12 -89 -16 l-90 -5 98 -2
c111 -2 108 -5 82 93 l-14 50 6 -55z"/>
<path d="M1335 940 c14 -27 25 -51 25 -52 0 -2 -32 -1 -71 0 -43 2 -76 -1 -82
-7 -8 -8 15 -11 81 -11 l92 0 -11 27 c-12 31 -48 93 -55 93 -2 0 7 -22 21 -50z"/>
<path d="M1120 974 c0 -3 4 -13 9 -22 4 -9 11 -29 14 -43 l7 -26 -91 -1 c-51
-1 -94 -4 -97 -7 -3 -3 43 -5 102 -5 105 0 107 0 100 22 -18 58 -44 106 -44
82z"/>
<path d="M235 770 l-7 -69 -106 -4 -107 -3 117 -2 116 -2 4 71 c4 92 -8 99
-17 9z"/>
<path d="M476 803 c-3 -21 -6 -52 -6 -70 l0 -32 -102 -4 -103 -3 113 -2 112
-2 0 75 c0 41 -2 75 -4 75 -2 0 -6 -17 -10 -37z"/>
<path d="M710 770 l0 -69 -97 -4 -98 -3 103 -2 102 -2 0 75 c0 41 -2 75 -5 75
-3 0 -5 -31 -5 -70z"/>
<path d="M920 771 l0 -70 -92 -4 -93 -3 103 -2 102 -2 0 69 c0 39 -4 73 -10
76 -6 4 -10 -20 -10 -64z"/>
<path d="M1171 773 l-1 -72 -102 -4 -103 -3 113 -2 112 -2 -1 48 c-1 26 -5 61
-9 77 -6 23 -8 12 -9 -42z"/>
<path d="M1386 773 l5 -72 -88 -4 -88 -3 93 -2 92 -2 -1 53 c-1 28 -5 63 -10
77 -6 16 -7 0 -3 -47z"/>
<path d="M712 593 l-2 -73 -91 0 c-57 0 -88 -4 -84 -10 10 -16 175 -13 181 3
3 8 3 45 1 83 l-3 69 -2 -72z"/>
<path d="M1370 650 c13 -8 12 -16 -5 -67 l-20 -58 -74 -3 c-64 -3 -73 -1 -67
13 3 9 2 13 -4 10 -6 -3 -10 -15 -10 -26 0 -17 7 -19 80 -19 l79 0 15 33 c20
44 36 108 30 119 -3 4 -13 8 -22 8 -15 0 -15 -2 -2 -10z"/>
<path d="M246 610 c3 -25 7 -55 11 -67 5 -23 4 -23 -97 -23 -65 0 -99 -4 -95
-10 7 -12 202 -14 208 -2 2 4 -5 39 -14 77 -14 54 -17 60 -13 25z"/>
<path d="M484 588 l2 -68 -94 0 c-59 0 -91 -4 -87 -10 9 -15 185 -13 190 3 3
6 1 41 -5 77 l-9 65 3 -67z"/>
<path d="M920 616 c0 -18 -3 -48 -6 -65 l-6 -31 -85 0 c-54 0 -82 -4 -78 -10
3 -5 44 -10 90 -10 95 0 88 -7 100 98 4 33 2 52 -5 52 -5 0 -10 -15 -10 -34z"/>
<path d="M1161 585 l-13 -65 -94 0 c-56 0 -94 -4 -94 -10 0 -6 39 -10 96 -10
l95 0 13 33 c16 38 27 117 17 117 -4 0 -13 -29 -20 -65z"/>
<path d="M290 454 c0 -6 7 -19 16 -30 14 -18 14 -18 3 6 -14 31 -19 36 -19 24z"/>
<path d="M505 445 c3 -11 11 -39 18 -62 6 -24 14 -43 18 -43 9 0 -16 83 -31
108 -10 15 -11 15 -5 -3z"/>
<path d="M708 393 l-3 -68 -57 0 c-32 0 -58 -3 -58 -7 0 -5 29 -8 65 -8 l65 0
0 75 c0 41 -2 75 -5 75 -2 0 -5 -30 -7 -67z"/>
<path d="M900 458 c-1 -2 -11 -32 -23 -68 l-22 -65 -52 0 c-28 0 -55 -3 -59
-7 -4 -5 22 -8 58 -8 l65 0 16 43 c20 51 32 107 23 107 -3 0 -6 -1 -6 -2z"/>
<path d="M1106 445 c6 -15 -54 -97 -66 -90 -6 3 -7 -1 -4 -9 7 -18 4 -18 -78
-16 -36 1 -58 -3 -58 -9 0 -7 27 -11 69 -11 68 0 70 1 98 38 16 20 39 54 52
74 21 35 21 37 3 35 -11 0 -18 -6 -16 -12z"/>
<path d="M1146 413 l-26 -48 24 29 c21 26 40 66 31 66 -2 0 -15 -21 -29 -47z"/>
<path d="M1282 420 c-20 -24 -38 -38 -45 -34 -7 4 -9 3 -4 -1 4 -5 -3 -19 -15
-32 -17 -18 -32 -23 -75 -23 -29 0 -53 -4 -53 -10 0 -5 24 -10 53 -10 51 0 56
2 105 53 29 28 59 62 68 75 26 37 1 24 -34 -18z"/>
<path d="M1409 258 c-1 -97 -4 -153 -9 -138 -7 23 -8 22 -9 -10 -1 -22 -4 -30
-9 -22 -6 9 -12 6 -20 -13 -6 -14 -17 -25 -24 -26 -7 -1 -2 -5 12 -9 14 -4
-280 -8 -652 -9 -445 -1 -678 -4 -678 -11 0 -7 240 -10 700 -10 l700 0 0 205
c0 113 -2 205 -5 205 -3 0 -5 -73 -6 -162z"/>
<path d="M160 375 c0 -5 16 -22 34 -37 32 -26 41 -28 118 -26 l83 1 -87 6
c-83 6 -112 17 -140 56 -5 7 -8 7 -8 0z"/>
<path d="M1199 363 c-13 -16 -12 -17 4 -4 16 13 21 21 13 21 -2 0 -10 -8 -17
-17z"/>
<path d="M480 320 l-65 -7 73 -1 c47 -1 71 2 67 8 -3 6 -7 9 -8 8 -1 -1 -31
-4 -67 -8z"/>
<path d="M340 245 c58 -31 196 -78 213 -72 14 5 14 5 -78 32 -33 10 -82 28
-109 41 -65 31 -84 30 -26 -1z"/>
<path d="M480 265 c0 -6 86 -56 132 -77 21 -9 38 -13 38 -9 0 4 -19 16 -42 27
-24 10 -60 28 -80 41 -38 23 -48 27 -48 18z"/>
<path d="M710 255 c-2 -11 -3 -28 -3 -38 0 -16 -1 -17 -24 -2 -14 9 -27 15
-29 12 -3 -2 10 -14 28 -25 l33 -21 3 24 c2 14 1 35 -1 48 -4 20 -5 20 -7 2z"/>
<path d="M787 232 c-20 -21 -37 -41 -37 -45 0 -12 59 35 75 60 23 35 3 27 -38
-15z"/>
<path d="M945 260 c-4 -6 -33 -24 -65 -40 -32 -16 -62 -35 -66 -41 -10 -17 16
-6 93 37 65 36 85 54 59 54 -8 0 -18 -5 -21 -10z"/>
<path d="M1020 255 c-7 -8 -9 -15 -4 -15 5 -1 -8 -10 -29 -21 -22 -11 -37 -23
-34 -25 6 -6 146 53 162 67 16 15 -29 9 -49 -6 -27 -21 -53 -20 -36 0 7 8 10
15 7 15 -2 0 -10 -7 -17 -15z"/>
<path d="M1104 235 c-18 -13 -18 -14 4 -8 12 3 25 9 28 14 8 14 -10 11 -32 -6z"/>
<path d="M1030 200 c0 -5 4 -10 9 -10 6 0 13 5 16 10 3 6 -1 10 -9 10 -9 0
-16 -4 -16 -10z"/>
<path d="M970 180 c-8 -5 -10 -10 -5 -10 6 0 17 5 25 10 8 5 11 10 5 10 -5 0
-17 -5 -25 -10z"/>
</g>
</svg>
