<?xml version="1.0" standalone="no"?>
<!DOCTYPE svg PUBLIC "-//W3C//DTD SVG 20010904//EN"
 "http://www.w3.org/TR/2001/REC-SVG-20010904/DTD/svg10.dtd">
<svg version="1.0" xmlns="http://www.w3.org/2000/svg"
 width="309.000000pt" height="100.000000pt" viewBox="0 0 309.000000 100.000000"
 preserveAspectRatio="xMidYMid meet">

<g transform="translate(0.000000,100.000000) scale(0.100000,-0.100000)"
fill="#000000" stroke="none">
<path d="M773 993 c428 -2 1126 -2 1550 0 425 1 75 2 -778 2 -852 0 -1200 -1
-772 -2z"/>
<path d="M0 970 c0 -7 522 -10 1545 -10 1023 0 1545 3 1545 10 0 7 -522 10
-1545 10 -1023 0 -1545 -3 -1545 -10z"/>
<path d="M426 835 c-44 -15 -91 -57 -113 -98 -32 -63 -10 -182 43 -228 53 -46
145 -63 211 -38 64 24 123 109 123 179 0 78 -70 168 -147 189 -49 14 -69 13
-117 -4z m181 -47 c20 -16 16 -24 -17 -38 -45 -19 -50 -34 -8 -27 48 7 67 -5
50 -34 -8 -12 -12 -43 -11 -72 3 -42 0 -53 -14 -55 -10 -2 -17 3 -17 12 0 21
-20 20 -36 -1 -12 -17 -13 -17 -19 0 -8 18 -35 24 -35 7 0 -5 -7 -10 -15 -10
-11 0 -15 14 -17 60 -1 33 -2 68 -2 78 -1 12 6 16 22 15 16 -2 22 2 22 16 0
14 5 18 19 14 10 -3 22 1 26 7 5 8 -4 11 -33 9 -48 -4 -60 4 -41 27 10 13 23
15 63 9 28 -3 56 -11 63 -17z m-169 -29 c-17 -11 -65 -11 -72 0 -8 13 15 29
49 33 32 3 48 -18 23 -33z m6 -43 c-10 -25 -94 -37 -94 -13 0 22 11 27 56 27
33 0 42 -3 38 -14z m-4 -42 c0 -3 -9 -17 -20 -31 -24 -30 -25 -43 -6 -43 8 0
17 10 19 23 3 16 5 13 6 -10 1 -23 -3 -33 -14 -33 -8 0 -15 -4 -15 -9 0 -10
109 -25 177 -25 38 1 41 -1 32 -17 -18 -35 -42 -39 -124 -22 -59 12 -83 13
-96 4 -15 -9 -22 -7 -39 11 -13 14 -17 25 -11 31 7 7 6 17 0 29 -5 10 -7 23
-4 28 12 19 24 10 28 -22 l4 -33 1 36 c2 30 -2 38 -19 42 -33 9 -17 31 27 38
21 3 42 7 47 8 4 0 7 -2 7 -5z"/>
<path d="M495 681 c-3 -5 -1 -12 5 -16 12 -7 30 2 30 16 0 12 -27 12 -35 0z"/>
<path d="M555 681 c-7 -12 12 -24 25 -16 11 7 4 25 -10 25 -5 0 -11 -4 -15 -9z"/>
<path d="M495 630 c-3 -5 3 -10 14 -10 12 0 21 5 21 10 0 6 -6 10 -14 10 -8 0
-18 -4 -21 -10z"/>
<path d="M560 625 c0 -9 6 -12 15 -9 8 4 15 10 15 15 0 5 -7 9 -15 9 -8 0 -15
-7 -15 -15z"/>
<path d="M2540 813 c-34 -6 -195 -82 -188 -88 3 -3 43 13 89 35 89 43 159 54
159 25 0 -23 -89 -115 -111 -115 -10 0 -23 -9 -29 -21 -14 -24 -6 -37 13 -21
22 19 39 -1 27 -32 -13 -35 -13 -36 6 -36 8 0 22 16 29 35 8 19 24 39 35 45
28 15 45 49 31 63 -8 8 -17 5 -34 -11 -39 -37 -42 -24 -3 18 41 46 56 88 35
101 -15 9 -18 9 -59 2z"/>
<path d="M920 790 c0 -5 -20 -10 -45 -10 -60 0 -58 -20 3 -22 l47 -1 -42 -4
c-82 -8 -43 -23 57 -23 102 0 139 16 53 23 l-48 3 53 2 c66 2 69 22 2 22 -27
0 -50 5 -50 10 0 6 -7 10 -15 10 -8 0 -15 -4 -15 -10z"/>
<path d="M1199 796 c-1 -3 -2 -11 -3 -18 0 -6 -9 -12 -18 -14 -11 -1 -15 3
-11 12 7 18 -11 18 -27 -1 -11 -13 -14 -13 -27 1 -10 10 -19 12 -25 6 -14 -14
-1 -32 22 -32 23 0 35 -17 22 -33 -5 -7 -8 -25 -6 -42 3 -42 3 -42 15 -25 8
12 9 10 4 -7 -6 -22 -4 -23 62 -25 l68 -2 -63 -3 c-57 -4 -64 -6 -73 -30 -5
-14 -7 -28 -4 -32 4 -3 37 -5 73 -4 41 1 58 -1 43 -5 -37 -11 -38 -32 -2 -32
20 0 35 8 45 22 29 41 21 48 -56 50 l-73 2 64 3 63 4 -4 30 c-3 18 0 29 7 29
14 0 17 77 4 86 -4 2 -6 11 -2 19 3 8 0 15 -7 15 -6 0 -8 5 -5 10 3 6 0 10 -8
10 -8 0 -18 -7 -21 -16 -7 -18 -21 -11 -21 9 0 12 -34 23 -36 13z m50 -60 c8
-10 9 -16 1 -21 -5 -3 -10 1 -10 9 0 9 -12 16 -32 19 l-33 4 31 1 c17 1 37 -4
43 -12z m-16 -43 c-7 -2 -21 -2 -30 0 -10 3 -4 5 12 5 17 0 24 -2 18 -5z m15
-50 c-16 -2 -40 -2 -55 0 -16 2 -3 4 27 4 30 0 43 -2 28 -4z"/>
<path d="M1607 786 c-7 -19 18 -40 39 -32 18 7 11 21 -16 36 -13 7 -19 6 -23
-4z"/>
<path d="M1677 793 c-16 -15 -4 -23 34 -23 25 0 38 -4 34 -10 -4 -6 -11 -8
-16 -5 -5 4 -14 3 -21 -1 -7 -5 -5 -11 7 -21 17 -12 16 -13 -13 -13 l-32 0 0
-85 c0 -50 4 -85 10 -85 6 0 10 9 10 20 0 13 7 20 20 20 13 0 20 -7 20 -20 0
-11 5 -20 10 -20 6 0 10 9 10 20 0 11 6 20 14 20 9 0 12 -7 9 -21 -5 -17 -2
-20 13 -17 17 3 19 14 22 86 2 67 0 82 -12 82 -24 0 -29 20 -11 40 9 10 14 24
10 29 -7 12 -107 15 -118 4z m53 -113 c0 -5 -9 -10 -20 -10 -11 0 -20 5 -20
10 0 6 9 10 20 10 11 0 20 -4 20 -10z m50 0 c0 -5 -7 -10 -15 -10 -8 0 -15 5
-15 10 0 6 7 10 15 10 8 0 15 -4 15 -10z m-50 -50 c0 -5 -9 -10 -20 -10 -11 0
-20 5 -20 10 0 6 9 10 20 10 11 0 20 -4 20 -10z m50 0 c0 -5 -7 -10 -15 -10
-8 0 -15 5 -15 10 0 6 7 10 15 10 8 0 15 -4 15 -10z"/>
<path d="M2207 783 c-10 -9 -8 -41 2 -47 19 -12 38 5 33 30 -4 23 -21 31 -35
17z"/>
<path d="M1360 645 c0 -113 2 -135 15 -135 8 0 15 7 15 15 0 12 13 15 60 15
47 0 60 -3 60 -15 0 -8 7 -15 15 -15 13 0 15 22 15 135 l0 135 -90 0 -90 0 0
-135z m150 70 l0 -35 -60 0 -60 0 0 35 0 35 60 0 60 0 0 -35z m0 -105 l0 -40
-60 0 -60 0 0 40 0 40 60 0 60 0 0 -40z"/>
<path d="M2075 770 c-4 -6 -1 -17 5 -26 10 -11 16 -12 26 -3 8 6 14 17 13 23
0 7 -2 6 -6 -1 -2 -7 -9 -13 -15 -13 -6 0 -8 7 -4 15 6 17 -9 21 -19 5z"/>
<path d="M2144 763 c2 -9 9 -19 16 -21 7 -3 10 0 6 7 -4 6 -2 11 3 11 6 0 11
5 11 10 0 6 -9 10 -19 10 -12 0 -18 -6 -17 -17z"/>
<path d="M2272 768 c-19 -19 -14 -28 13 -28 14 0 25 5 25 10 0 6 -5 10 -11 10
-5 0 -7 5 -4 10 9 14 -8 13 -23 -2z"/>
<path d="M1594 729 c-9 -16 21 -43 41 -35 19 7 13 21 -15 36 -13 7 -21 7 -26
-1z"/>
<path d="M860 695 c0 -25 1 -25 80 -25 79 0 80 0 80 25 0 25 -1 25 -80 25 -79
0 -80 0 -80 -25z m108 -2 c-16 -2 -40 -2 -55 0 -16 2 -3 4 27 4 30 0 43 -2 28
-4z"/>
<path d="M2005 660 c-11 -34 -25 -54 -43 -62 -35 -18 -40 -38 -9 -38 34 0 61
27 81 78 20 52 20 72 2 72 -8 0 -21 -21 -31 -50z"/>
<path d="M2060 668 c-28 -62 -26 -96 6 -104 17 -4 29 -2 35 7 13 22 11 29 -11
29 -18 0 -18 2 -5 41 8 23 15 48 15 55 0 28 -22 13 -40 -28z"/>
<path d="M2215 698 c-12 -32 -45 -132 -45 -135 0 -1 9 -3 19 -3 12 0 23 11 30
30 8 26 15 30 44 30 48 0 58 27 13 35 -28 6 -32 10 -28 31 3 17 0 24 -12 24
-9 0 -19 -6 -21 -12z"/>
<path d="M2337 696 c-8 -20 96 -34 118 -16 25 20 7 30 -55 30 -41 0 -59 -4
-63 -14z"/>
<path d="M1080 686 c0 -7 6 -19 14 -25 19 -16 32 5 16 24 -16 19 -30 19 -30 1z"/>
<path d="M2680 691 c0 -6 -14 -11 -32 -13 -39 -4 -51 -28 -14 -28 40 0 32 -41
-11 -54 -29 -9 -30 -36 -2 -36 33 0 56 17 67 50 7 18 22 34 38 40 l27 11 -21
19 c-22 21 -52 27 -52 11z"/>
<path d="M822 638 c4 -27 25 -35 31 -11 4 15 5 16 6 1 0 -9 9 -19 19 -21 16
-4 16 -5 0 -6 -10 0 -18 -5 -18 -10 0 -5 -3 -16 -6 -25 -4 -11 3 -16 33 -19
32 -3 30 -4 -14 -5 -40 -2 -53 -6 -53 -17 0 -12 19 -15 115 -15 96 0 115 3
115 15 0 11 -13 15 -52 17 -52 1 -52 1 -13 7 39 6 49 20 33 46 -3 6 -2 19 3
30 6 17 8 17 8 3 1 -28 21 -21 21 7 l0 25 -116 0 c-113 0 -115 0 -112 -22z
m141 -35 c-7 -2 -21 -2 -30 0 -10 3 -4 5 12 5 17 0 24 -2 18 -5z m-36 -29 c-3
-3 -12 -4 -19 -1 -8 3 -5 6 6 6 11 1 17 -2 13 -5z m66 -1 c-7 -2 -21 -2 -30 0
-10 3 -4 5 12 5 17 0 24 -2 18 -5z"/>
<path d="M1590 645 c0 -8 7 -15 15 -15 20 0 20 -48 -1 -71 -10 -11 -14 -25
-10 -36 7 -17 8 -17 17 -1 9 16 12 16 33 3 13 -9 52 -18 88 -22 54 -5 67 -3
83 13 18 19 17 19 -51 22 -114 4 -114 4 -114 67 0 54 0 55 -30 55 -20 0 -30
-5 -30 -15z"/>
<path d="M2111 647 c-20 -20 -12 -28 27 -25 23 2 37 8 37 17 0 17 -49 23 -64
8z"/>
<path d="M2320 645 c0 -11 11 -15 41 -15 28 0 39 -4 37 -12 -3 -7 -13 -14 -24
-16 -49 -7 -64 -13 -64 -26 0 -8 8 -16 17 -18 23 -4 -111 -58 -146 -58 -36 0
-42 7 -30 39 7 16 7 22 0 16 -10 -10 -14 -30 -12 -54 2 -23 88 -8 162 27 37
18 72 32 77 32 20 0 65 50 68 75 3 24 1 25 -62 25 -50 0 -64 -3 -64 -15z"/>
<path d="M2750 635 c0 -10 10 -15 34 -15 21 0 36 6 40 15 4 12 -3 15 -34 15
-29 0 -40 -4 -40 -15z"/>
<path d="M1096 574 c-12 -30 -15 -49 -9 -55 10 -10 43 56 43 86 0 28 -15 15
-34 -31z"/>
<path d="M2370 516 c0 -20 5 -26 21 -26 15 0 20 5 17 22 -5 34 -38 37 -38 4z"/>
<path d="M2443 533 c-20 -8 -15 -40 7 -46 24 -6 34 6 25 33 -6 20 -11 22 -32
13z"/>
<path d="M2560 516 c0 -15 7 -26 19 -29 25 -6 35 18 15 38 -22 22 -34 19 -34
-9z"/>
<path d="M2680 526 c0 -8 5 -18 10 -21 6 -4 8 -11 5 -16 -4 -5 -1 -9 4 -9 6 0
11 14 11 30 0 20 -5 30 -15 30 -8 0 -15 -6 -15 -14z"/>
<path d="M2768 533 c-22 -5 -24 -39 -2 -47 21 -8 34 1 34 24 0 22 -8 28 -32
23z"/>
<path d="M2495 520 c-9 -15 4 -30 26 -30 12 0 19 7 19 20 0 21 -33 29 -45 10z"/>
<path d="M2623 511 c1 -15 4 -17 14 -9 9 7 13 7 13 -1 0 -7 4 -10 10 -6 15 9
0 35 -20 35 -12 0 -18 -7 -17 -19z"/>
<path d="M2722 510 c0 -14 2 -19 5 -12 2 6 2 18 0 25 -3 6 -5 1 -5 -13z"/>
<path d="M1205 330 c-23 -25 -32 -110 -15 -149 13 -32 33 -44 60 -36 43 14 56
133 19 179 -25 31 -40 33 -64 6z m50 -85 c0 -53 -2 -60 -20 -60 -16 0 -21 8
-23 39 -5 56 5 88 26 84 14 -3 17 -15 17 -63z"/>
<path d="M1997 332 c-27 -29 -21 -68 13 -94 17 -12 30 -30 30 -40 0 -22 -26
-24 -34 -3 -8 21 -26 19 -26 -4 0 -23 25 -51 45 -51 24 0 45 30 45 65 0 27 -7
40 -30 57 -16 12 -30 28 -30 35 0 19 17 16 29 -4 8 -14 12 -15 22 -6 9 9 8 18
-5 37 -20 31 -37 33 -59 8z"/>
<path d="M2096 328 c-24 -34 -19 -57 20 -93 35 -32 38 -55 8 -55 -8 0 -14 7
-14 15 0 8 -7 15 -15 15 -19 0 -19 -20 1 -48 30 -43 74 -21 74 37 0 42 -7 54
-37 70 -25 13 -31 41 -9 41 8 0 16 -7 20 -15 8 -21 26 -19 26 3 0 20 -29 52
-48 52 -6 0 -18 -10 -26 -22z"/>
<path d="M822 246 c3 -102 19 -130 28 -49 l5 47 19 -53 c27 -76 41 -60 44 52
2 82 0 97 -13 97 -11 0 -15 -12 -16 -52 l-1 -53 -17 50 c-11 30 -25 51 -35 53
-15 3 -16 -6 -14 -92z"/>
<path d="M932 245 c4 -127 22 -129 26 -2 2 83 0 97 -13 97 -13 0 -15 -14 -13
-95z"/>
<path d="M980 240 c0 -60 4 -100 10 -100 6 0 10 18 10 39 0 36 3 40 27 43 34
4 50 48 34 91 -9 22 -17 27 -46 27 l-35 0 0 -100z m60 39 c0 -12 -7 -19 -20
-19 -19 0 -28 28 -14 43 11 11 34 -5 34 -24z"/>
<path d="M1082 246 c3 -95 20 -137 26 -64 2 29 8 37 25 40 28 4 44 48 31 86
-8 22 -16 28 -47 30 l-38 3 3 -95z m58 33 c0 -10 -7 -19 -15 -19 -9 0 -15 9
-15 25 0 18 4 23 15 19 8 -4 15 -15 15 -25z"/>
<path d="M1302 246 c3 -106 20 -133 28 -46 l5 55 14 -45 c30 -102 51 -88 51
36 0 77 -3 94 -15 94 -11 0 -15 -12 -16 -47 l0 -48 -18 45 c-10 25 -26 46 -35
48 -15 3 -16 -7 -14 -92z"/>
<path d="M1460 240 l0 -101 60 3 c56 2 60 4 72 32 l12 30 12 -29 c9 -23 19
-30 43 -31 30 -2 31 0 31 37 0 31 4 39 18 39 27 0 42 20 42 56 0 54 -8 64 -51
64 l-38 0 -3 -92 -3 -93 -17 48 c-15 42 -15 52 -2 88 17 51 17 49 0 49 -8 0
-18 -12 -23 -27 l-10 -28 -6 28 c-4 15 -14 27 -22 27 -19 0 -19 -9 0 -53 13
-31 13 -40 -2 -83 -9 -27 -18 -43 -21 -36 -2 6 -17 12 -33 12 -24 0 -29 4 -29
25 0 20 5 25 25 25 18 0 25 5 25 20 0 15 -7 20 -25 20 -18 0 -25 5 -25 20 0
16 7 20 30 20 20 0 30 5 30 15 0 11 -12 15 -45 15 l-45 0 0 -100z m268 41 c-2
-9 -11 -17 -21 -19 -12 -3 -17 3 -17 21 0 20 4 24 20 20 12 -3 20 -12 18 -22z"/>
<path d="M1770 240 c0 -60 4 -100 10 -100 6 0 10 18 10 40 0 49 16 52 35 6 15
-35 32 -52 42 -42 3 3 -2 24 -11 47 -12 29 -14 45 -7 52 12 12 14 56 5 81 -4
11 -19 16 -45 16 l-39 0 0 -100z m59 61 c19 -12 6 -41 -19 -41 -13 0 -20 7
-20 18 0 31 14 39 39 23z"/>
<path d="M1880 239 l0 -100 42 3 c31 2 44 8 46 21 3 13 -3 17 -27 17 -26 0
-31 4 -31 25 0 20 5 25 25 25 18 0 25 5 25 20 0 15 -7 20 -25 20 -18 0 -25 5
-25 20 0 16 7 20 30 20 20 0 30 5 30 15 0 11 -12 15 -45 15 l-45 0 0 -101z"/>
<path d="M2220 326 c0 -7 9 -16 20 -19 18 -5 20 -14 20 -86 0 -47 4 -81 10
-81 6 0 10 34 10 81 0 72 2 81 20 86 11 3 20 12 20 19 0 10 -14 14 -50 14 -36
0 -50 -4 -50 -14z"/>
<path d="M2355 328 c-7 -20 -35 -158 -35 -174 0 -24 19 -16 26 11 8 32 41 34
49 2 5 -18 13 -24 36 -24 l29 0 0 99 c0 79 -3 98 -15 98 -11 0 -15 -19 -17
-92 l-3 -93 -19 93 c-13 63 -23 92 -33 92 -7 0 -16 -6 -18 -12z m25 -83 c0 -8
-4 -15 -10 -15 -5 0 -10 7 -10 15 0 8 5 15 10 15 6 0 10 -7 10 -15z"/>
<path d="M2471 318 c1 -57 25 -172 36 -176 15 -4 19 5 29 73 l7 50 9 -55 c8
-53 22 -80 34 -68 3 3 10 39 15 80 5 40 12 83 14 96 4 15 1 22 -9 22 -10 0
-17 -17 -22 -57 -8 -63 -9 -62 -19 10 -5 38 -10 47 -26 47 -14 0 -19 -7 -19
-29 0 -16 -3 -38 -7 -48 -6 -13 -9 -6 -13 26 -5 46 -31 71 -29 29z"/>
<path d="M2637 258 c-9 -46 -17 -91 -17 -100 0 -27 19 -21 26 7 4 15 13 25 24
25 11 0 20 -10 24 -25 7 -28 26 -34 26 -9 0 9 -8 54 -17 100 -24 114 -43 115
-66 2z m43 -13 c0 -8 -4 -15 -10 -15 -5 0 -10 7 -10 15 0 8 5 15 10 15 6 0 10
-7 10 -15z"/>
<path d="M2732 246 c3 -102 19 -130 28 -49 l5 47 19 -53 c27 -76 41 -60 44 52
2 82 0 97 -13 97 -11 0 -15 -12 -16 -52 l-1 -53 -17 50 c-11 30 -25 51 -35 53
-15 3 -16 -6 -14 -92z"/>
</g>
</svg>
