<?xml version="1.0" standalone="no"?>
<!DOCTYPE svg PUBLIC "-//W3C//DTD SVG 20010904//EN"
 "http://www.w3.org/TR/2001/REC-SVG-20010904/DTD/svg10.dtd">
<svg version="1.0" xmlns="http://www.w3.org/2000/svg"
 width="2835.000000pt" height="2835.000000pt" viewBox="0 0 2835.000000 2835.000000"
 preserveAspectRatio="xMidYMid meet">

<g transform="translate(0.000000,2835.000000) scale(0.100000,-0.100000)"
fill="rgba(255,0,0,0.1)" stroke="none">
<path d="M13380 26854 c-19 -2 -105 -8 -190 -14 -359 -25 -880 -91 -1255 -159
-619 -112 -999 -205 -1545 -377 -113 -35 -211 -64 -217 -64 -18 0 -329 -115
-600 -221 -138 -54 -254 -99 -258 -99 -20 0 -632 -283 -840 -388 -60 -30 -189
-99 -285 -152 -96 -53 -184 -99 -194 -103 -47 -18 -638 -381 -791 -487 -93
-64 -190 -129 -215 -145 -71 -44 -430 -309 -574 -425 -72 -57 -176 -140 -231
-184 -55 -44 -158 -132 -228 -195 -71 -64 -141 -125 -156 -136 -90 -65 -645
-612 -860 -848 -478 -525 -782 -912 -1213 -1547 -131 -193 -445 -707 -440
-722 1 -4 -2 -8 -8 -8 -5 0 -10 -5 -10 -12 0 -6 -20 -45 -44 -87 -90 -156
-259 -475 -259 -488 0 -7 -4 -13 -9 -13 -5 0 -6 -4 -3 -10 3 -5 1 -10 -6 -10
-7 0 -10 -3 -6 -6 3 -3 -19 -54 -48 -112 -66 -133 -179 -376 -233 -502 -98
-229 -322 -818 -352 -925 -10 -33 -49 -161 -88 -285 -86 -273 -192 -650 -221
-785 -12 -55 -37 -172 -55 -260 -126 -586 -197 -1063 -253 -1680 -15 -171 -18
-309 -18 -960 0 -806 2 -859 56 -1335 56 -505 109 -809 270 -1565 29 -136 135
-513 221 -785 39 -124 78 -252 88 -285 30 -107 254 -696 352 -925 56 -131 168
-372 238 -512 32 -64 56 -119 53 -122 -4 -3 -2 -6 4 -6 5 0 10 -6 10 -13 0
-13 169 -332 259 -488 24 -42 44 -81 44 -87 0 -7 4 -12 10 -12 5 0 9 -4 7 -8
-4 -15 310 -529 441 -722 420 -617 735 -1021 1183 -1515 349 -384 931 -935
1304 -1236 295 -236 647 -502 764 -577 31 -19 133 -88 226 -152 151 -104 762
-480 779 -480 4 0 91 -47 194 -103 228 -127 315 -171 642 -324 316 -149 377
-175 725 -311 332 -130 509 -195 625 -229 47 -13 162 -48 255 -78 319 -101
712 -207 925 -249 47 -10 182 -37 300 -61 506 -103 971 -168 1540 -217 111 -9
370 -13 905 -13 642 0 779 3 950 18 553 50 999 114 1500 217 105 21 228 46
275 56 296 58 992 257 1370 391 174 62 665 253 810 315 269 115 719 334 940
456 74 41 176 96 225 122 148 77 618 365 800 490 94 64 195 133 226 152 196
125 779 579 1053 822 787 695 1446 1425 1994 2210 203 291 294 429 406 611 60
99 134 221 164 270 31 50 72 122 92 160 21 39 77 142 125 230 163 299 195 362
188 368 -3 4 -1 7 6 7 7 0 9 4 6 10 -3 6 -1 10 6 10 7 0 10 3 7 6 -4 3 15 49
42 102 62 125 176 371 228 492 100 234 356 909 366 967 3 16 15 55 26 88 88
255 274 924 294 1057 3 20 19 97 35 170 113 512 193 1045 248 1653 15 171 18
309 18 960 0 651 -3 789 -18 960 -55 608 -135 1141 -248 1653 -16 73 -32 150
-35 170 -20 136 -208 809 -303 1085 -11 31 -18 57 -16 57 13 0 -258 717 -367
970 -52 121 -166 367 -228 492 -27 53 -46 99 -42 102 3 3 0 6 -7 6 -7 0 -9 5
-6 10 3 6 1 10 -6 10 -7 0 -9 3 -6 7 7 6 -22 63 -188 368 -48 88 -104 192
-124 230 -21 39 -62 111 -92 160 -31 50 -105 171 -165 270 -104 170 -278 436
-309 473 -9 9 -59 81 -113 159 -597 868 -1475 1800 -2363 2509 -231 185 -617
475 -668 503 -14 8 -109 71 -211 141 -194 133 -665 423 -810 498 -47 24 -148
79 -225 121 -300 166 -923 462 -1105 526 -36 12 -144 54 -240 93 -209 84 -584
222 -602 222 -6 0 -105 29 -218 64 -878 276 -1680 433 -2725 532 -135 13 -319
17 -905 19 -404 1 -751 1 -770 -1z m1550 -3254 c0 -5 14 -17 30 -25 29 -15 33
-15 59 5 33 23 61 26 61 8 0 -9 19 -13 56 -14 31 -1 59 -6 63 -11 8 -13 81
-24 81 -13 0 5 16 12 35 16 19 3 52 15 72 25 51 26 110 25 118 -1 3 -11 4 -23
2 -27 -7 -11 14 -27 38 -31 62 -9 142 -8 157 2 14 8 21 8 27 -2 4 -8 32 -14
69 -15 34 -1 62 -6 62 -11 0 -4 9 -6 20 -3 11 3 20 0 20 -5 0 -6 6 -6 14 1 21
18 167 17 180 -1 6 -7 25 -15 41 -16 78 -6 114 -9 158 -10 33 -1 47 -6 47 -16
0 -8 7 -16 15 -20 8 -3 15 -1 15 4 0 6 10 10 23 10 13 0 27 3 30 7 14 13 106
12 117 -2 8 -9 8 -15 0 -20 -16 -10 -12 -25 5 -19 8 4 15 12 15 19 0 7 13 18
29 23 24 8 31 7 35 -5 5 -11 10 -13 20 -4 19 16 306 8 316 -9 6 -11 20 -11 66
-2 71 15 260 16 269 2 4 -6 9 -8 13 -6 4 2 59 7 122 10 63 3 117 11 118 16 2
6 13 10 24 10 15 0 18 -5 13 -20 -8 -24 9 -26 45 -5 33 19 111 19 136 0 16
-13 17 -16 4 -25 -11 -7 -11 -10 -2 -10 7 0 10 -4 7 -10 -3 -5 1 -10 9 -10 9
0 16 5 16 11 0 7 14 9 43 5 23 -4 65 -9 92 -12 61 -7 77 -20 50 -40 -18 -13
-15 -14 33 -8 35 4 57 2 67 -6 14 -12 59 -12 348 -7 65 2 86 5 82 15 -2 6 -3
12 -1 12 3 0 11 3 20 6 11 4 16 1 16 -10 0 -19 16 -22 22 -4 3 7 11 9 24 3 32
-13 42 -14 47 -1 3 7 19 13 37 14 17 0 38 6 45 12 17 14 55 4 55 -16 0 -24
173 -23 198 2 7 8 17 12 22 9 4 -3 23 1 40 9 33 13 70 11 70 -5 0 -4 17 -2 38
5 20 7 43 11 49 9 7 -3 23 3 35 11 30 21 58 20 59 -1 0 -10 3 -13 5 -6 3 7 12
9 20 6 8 -3 14 1 14 9 0 10 10 15 33 14 17 -1 38 5 46 12 7 7 21 10 30 8 22
-7 70 -8 179 -3 85 4 118 -2 92 -18 -16 -10 -12 -23 13 -37 12 -7 22 -20 22
-28 0 -8 5 -14 12 -13 6 2 15 -6 18 -17 4 -12 13 -19 21 -18 8 2 20 -8 27 -22
10 -19 19 -24 41 -22 26 3 28 1 23 -20 -5 -19 0 -31 21 -51 16 -15 31 -24 35
-21 4 4 10 -2 14 -12 4 -10 36 -47 72 -81 36 -35 61 -63 57 -63 -5 0 -3 -6 3
-14 6 -7 9 -21 5 -30 -7 -19 0 -20 27 -5 28 15 61 2 54 -21 -5 -15 4 -21 47
-35 63 -21 81 -33 74 -52 -4 -11 0 -13 14 -8 16 5 20 2 20 -14 0 -12 -3 -20
-7 -20 -17 3 -33 -1 -33 -9 0 -13 54 -30 99 -31 24 0 50 -6 58 -13 12 -10 11
-14 -8 -29 l-23 -17 39 -7 c22 -4 49 -9 59 -12 18 -5 18 -6 3 -18 -9 -7 -17
-14 -17 -17 0 -4 37 -17 98 -34 17 -5 15 -24 -3 -24 -8 0 -15 -7 -15 -15 0 -9
6 -12 15 -9 21 8 47 -16 42 -38 -4 -14 1 -18 18 -18 13 0 30 -6 37 -12 7 -7
19 -13 26 -14 28 -2 32 -5 32 -24 0 -15 9 -22 30 -26 22 -5 30 -12 30 -28 1
-33 24 -56 59 -56 26 0 31 -4 31 -23 0 -13 5 -28 11 -34 6 -6 12 -19 13 -29 2
-12 14 -21 32 -25 54 -11 74 -21 74 -38 0 -10 11 -24 25 -31 14 -8 24 -21 23
-29 -2 -10 8 -21 24 -28 28 -12 40 -53 16 -53 -6 0 -8 -3 -4 -7 8 -8 13 -9 41
-12 8 0 21 -16 29 -35 12 -29 18 -33 40 -29 21 4 26 1 26 -14 0 -10 -5 -24
-10 -29 -7 -7 -3 -17 10 -32 11 -11 20 -26 20 -31 0 -5 17 -23 38 -41 25 -21
33 -33 25 -38 -23 -14 8 -57 42 -57 17 -1 29 -5 27 -10 -14 -48 -13 -56 10
-75 24 -19 55 -113 49 -152 -1 -10 1 -18 6 -18 4 0 17 -7 27 -15 14 -11 20
-30 22 -72 2 -32 4 -67 5 -78 0 -11 -1 -41 -3 -66 -3 -28 1 -54 8 -64 9 -12
10 -25 4 -41 -8 -19 -5 -26 10 -34 24 -13 27 -58 5 -67 -14 -5 -14 -8 0 -29
16 -24 15 -25 -33 -50 -20 -10 -22 -14 -9 -14 32 0 17 -44 -15 -48 -27 -3 -32
-11 -29 -39 1 -7 -6 -13 -15 -13 -10 0 -14 -3 -11 -7 4 -4 -6 -12 -23 -19 -18
-8 -28 -18 -25 -27 4 -8 -5 -18 -20 -25 -27 -12 -33 -27 -12 -35 6 -3 -5 -12
-25 -21 -20 -9 -44 -13 -53 -10 -10 4 -23 -3 -36 -20 -11 -14 -25 -24 -30 -21
-5 4 -9 2 -9 -3 0 -5 -14 -12 -31 -16 -26 -5 -30 -9 -25 -29 5 -20 -1 -25 -44
-40 -28 -10 -50 -23 -50 -30 0 -13 -46 -45 -65 -46 -27 -1 -135 -35 -135 -42
0 -5 -6 -9 -14 -9 -7 0 -19 -7 -26 -15 -7 -8 -16 -12 -21 -9 -5 3 -9 1 -9 -4
0 -6 -13 -15 -30 -21 -16 -5 -30 -14 -30 -19 0 -5 -18 -12 -40 -16 -23 -4 -38
-11 -35 -16 3 -6 -2 -10 -12 -10 -11 0 -35 -15 -55 -32 -20 -18 -46 -39 -57
-46 -18 -10 -95 -22 -158 -25 -10 0 -28 -42 -25 -58 1 -3 -10 -5 -23 -3 -14 1
-25 -1 -25 -5 0 -4 -19 -6 -43 -4 -33 3 -55 -3 -101 -27 -32 -18 -75 -32 -95
-33 -22 -1 -43 -10 -53 -22 -10 -11 -17 -16 -18 -12 0 5 -7 1 -16 -7 -9 -9
-33 -16 -57 -16 -69 0 -88 -9 -81 -35 8 -31 -26 -49 -72 -40 -42 7 -49 7 -50
-2 0 -5 -4 -15 -8 -24 -4 -9 -6 -22 -4 -29 2 -9 -11 -16 -37 -21 -22 -4 -53
-14 -70 -23 -16 -9 -37 -16 -45 -16 -8 0 -31 -16 -52 -37 -34 -34 -41 -36 -94
-34 -56 2 -74 -2 -169 -33 -27 -9 -58 -19 -68 -21 -9 -2 -21 -6 -26 -10 -5 -3
-13 -1 -16 5 -4 7 -28 9 -63 5 -88 -9 -96 -11 -100 -23 -2 -7 -10 -12 -18 -12
-8 0 -17 -6 -20 -14 -9 -23 -83 -49 -100 -35 -19 15 -69 2 -105 -29 -28 -23
-42 -26 -116 -29 -67 -3 -88 -7 -101 -22 -18 -19 -133 -71 -157 -71 -9 0 -12
-6 -8 -17 5 -12 2 -15 -10 -10 -9 3 -17 2 -17 -4 0 -6 -4 -8 -9 -5 -5 4 -22
-4 -38 -17 -40 -33 -97 -57 -138 -59 -25 -1 -35 -6 -35 -18 0 -20 -19 -40 -38
-40 -8 0 -26 -11 -41 -25 -30 -28 -135 -132 -156 -155 -8 -8 -19 -19 -24 -25
-47 -45 -77 -85 -63 -85 13 0 12 -3 -3 -20 -10 -11 -15 -20 -10 -20 4 0 -7
-14 -24 -32 -28 -29 -29 -32 -13 -44 16 -12 16 -13 -1 -20 -31 -12 -43 -50
-51 -169 -2 -38 -9 -71 -15 -73 -16 -5 -13 -22 4 -22 14 0 19 -11 16 -37 -1
-7 9 -15 22 -18 14 -4 29 -20 40 -46 13 -30 22 -39 42 -39 20 0 25 -5 25 -25
0 -15 6 -25 14 -25 8 0 16 -5 18 -11 2 -5 11 -11 20 -13 10 -1 21 -5 24 -9 14
-14 67 -6 101 14 27 17 53 22 121 24 52 1 97 7 112 16 36 20 47 21 225 24 88
2 214 5 281 7 67 2 163 1 215 -3 52 -4 150 -9 219 -10 69 -1 128 -7 131 -12 9
-13 91 -17 104 -6 6 4 42 8 80 8 228 -2 352 4 382 16 19 8 57 13 88 11 30 -2
52 0 50 4 -7 11 73 32 94 25 10 -3 41 3 69 14 36 14 52 17 55 8 2 -7 14 -4 33
11 92 72 110 83 127 78 20 -5 67 12 67 24 0 4 11 12 25 18 14 6 25 18 25 27 0
8 9 15 20 15 11 0 28 8 38 18 10 9 28 24 40 32 12 8 22 22 22 32 0 10 6 18 14
18 7 0 19 7 27 16 9 11 22 14 47 9 22 -4 41 -1 57 9 22 15 65 12 65 -5 0 -5 5
-9 11 -9 6 0 27 -14 46 -31 32 -28 37 -29 52 -15 28 25 101 19 101 -9 0 -15
36 -48 56 -51 50 -7 114 -29 114 -39 0 -13 42 -35 65 -35 8 0 15 -7 15 -15 0
-18 2 -18 51 -3 33 9 42 9 57 -5 10 -10 31 -17 46 -17 14 0 29 -7 32 -15 4 -8
14 -15 24 -15 11 0 22 -4 25 -10 3 -5 26 -10 50 -10 24 0 47 -4 50 -10 3 -5
15 -10 25 -10 12 0 20 -8 22 -22 3 -21 11 -24 71 -30 40 -4 76 -13 86 -22 10
-9 27 -16 39 -16 12 0 26 -8 31 -17 5 -10 36 -26 69 -36 62 -18 108 -49 98
-66 -7 -11 49 -25 64 -16 5 3 10 0 10 -7 1 -7 9 -23 20 -36 14 -17 25 -21 44
-16 23 5 26 3 26 -21 0 -15 4 -24 10 -20 6 3 10 1 10 -5 0 -7 6 -10 14 -7 17
7 29 -30 12 -37 -6 -2 1 -5 17 -5 15 -1 27 -5 27 -9 0 -4 12 -9 26 -10 37 -3
44 -10 44 -43 0 -22 5 -29 20 -29 15 0 20 -7 20 -25 0 -14 4 -25 9 -25 6 0 22
-11 36 -24 22 -21 24 -26 12 -37 -12 -12 -11 -16 9 -32 13 -10 24 -27 24 -37
0 -16 25 -35 43 -32 4 1 7 -21 7 -49 0 -56 11 -83 47 -117 13 -12 22 -26 19
-30 -9 -15 -20 -148 -17 -226 1 -65 -1 -82 -17 -100 -26 -29 -61 -96 -65 -126
-6 -39 -18 -60 -33 -60 -11 0 -14 -11 -13 -37 3 -48 -8 -83 -26 -83 -17 0 -46
-40 -38 -53 7 -11 -62 -77 -82 -77 -11 0 -14 -7 -10 -22 5 -19 -3 -28 -42 -53
-26 -16 -51 -34 -55 -39 -27 -40 -84 -106 -91 -106 -17 0 -37 -29 -37 -53 0
-18 -7 -27 -25 -31 -15 -4 -27 -16 -31 -32 -4 -15 -12 -23 -20 -20 -7 3 -18
-2 -24 -10 -7 -8 -19 -14 -27 -14 -10 0 -12 -6 -8 -20 5 -16 -3 -26 -39 -49
-26 -16 -61 -44 -79 -63 -17 -19 -49 -45 -69 -57 -21 -12 -38 -27 -38 -32 0
-5 -7 -9 -16 -9 -12 0 -15 -9 -13 -41 3 -33 -1 -44 -21 -59 -13 -10 -27 -17
-31 -14 -3 2 -15 -6 -25 -17 -15 -17 -16 -22 -4 -29 12 -7 12 -15 3 -42 -6
-18 -12 -55 -12 -82 0 -27 -5 -54 -10 -59 -6 -6 -6 -19 0 -34 6 -16 4 -36 -4
-62 -9 -23 -10 -46 -5 -60 9 -25 2 -45 -13 -36 -5 4 -9 1 -9 -6 0 -6 -14 -25
-30 -41 -24 -22 -29 -34 -24 -53 3 -14 11 -25 17 -25 5 0 2 -9 -8 -20 -20 -22
-28 -100 -10 -100 5 0 3 -6 -6 -13 -22 -17 -29 -52 -18 -92 6 -20 7 -40 3 -47
-4 -6 -8 -41 -9 -77 -1 -36 -5 -111 -9 -166 -5 -55 -9 -117 -11 -139 -1 -21
-8 -42 -14 -45 -6 -4 -9 -15 -5 -25 4 -11 0 -22 -12 -30 -14 -10 -16 -17 -7
-27 11 -15 10 -50 -4 -159 -4 -36 -7 -220 -5 -410 3 -372 4 -401 27 -680 11
-134 26 -327 31 -395 3 -38 7 -83 9 -100 6 -43 14 -176 20 -365 4 -91 10 -199
14 -240 4 -41 5 -79 1 -85 -4 -5 -6 -23 -4 -40 3 -24 17 -195 23 -285 7 -99 6
-234 -2 -268 -7 -32 -6 -46 4 -58 16 -19 18 -46 5 -56 -6 -4 -4 -13 3 -22 7
-9 11 -22 8 -31 -4 -8 -2 -17 3 -20 6 -4 10 -15 10 -26 0 -10 5 -19 11 -19 8
0 9 -15 5 -47 -4 -27 -8 -59 -9 -72 -1 -13 -7 -26 -14 -28 -7 -3 -10 -10 -7
-18 3 -7 1 -16 -4 -19 -15 -9 -2 -45 14 -39 9 3 14 -2 15 -13 1 -11 2 -34 4
-51 1 -18 0 -33 -4 -33 -4 0 -6 -30 -4 -67 1 -38 5 -189 8 -338 2 -148 7 -282
10 -297 2 -16 1 -28 -3 -28 -4 0 -7 -24 -6 -52 4 -90 5 -242 1 -265 -2 -12 -9
-28 -15 -36 -10 -11 -9 -17 1 -25 16 -13 22 -83 8 -92 -7 -4 -8 -17 -1 -40 8
-26 6 -37 -5 -50 -11 -12 -15 -40 -15 -96 0 -50 -5 -85 -12 -92 -10 -10 -10
-14 0 -21 10 -6 10 -14 2 -36 -7 -19 -7 -31 0 -40 12 -14 12 -19 10 -208 -1
-81 -5 -158 -8 -171 -12 -43 -49 -76 -85 -76 -18 0 -49 -9 -69 -19 -19 -11
-39 -17 -43 -13 -3 4 -11 -1 -16 -10 -8 -15 -19 -17 -62 -12 -29 3 -68 9 -88
13 -25 6 -47 4 -69 -6 -48 -20 -174 -4 -139 18 21 12 -33 29 -95 29 -63 0
-116 9 -116 21 0 4 7 14 15 23 21 20 8 26 -72 31 -52 3 -72 8 -84 23 -17 22
-74 38 -83 24 -3 -5 -17 -8 -30 -7 -35 4 -125 35 -131 45 -3 4 -22 11 -42 15
-21 4 -41 12 -45 18 -8 13 -74 13 -91 -1 -7 -5 -39 -7 -72 -5 -33 3 -92 6
-132 6 -66 2 -73 0 -95 -26 -13 -15 -31 -27 -40 -27 -9 0 -20 -5 -23 -10 -3
-5 -22 -10 -42 -10 -31 0 -34 -2 -22 -16 16 -19 -1 -33 -43 -35 -41 -2 -46 -3
-54 -12 -4 -4 -16 -7 -26 -7 -18 0 -19 7 -17 103 2 56 0 108 -4 114 -10 16
-13 170 -4 179 10 10 8 122 -2 167 -5 20 -6 37 -2 37 10 0 14 158 8 300 -4 95
-19 173 -40 222 -8 18 -27 68 -43 111 -20 59 -35 85 -60 103 -17 14 -37 38
-44 55 -14 32 -58 69 -84 69 -9 0 -16 5 -16 11 0 5 -4 7 -10 4 -5 -3 -10 -2
-10 2 0 5 -14 17 -31 27 -17 10 -28 23 -26 29 3 7 -6 13 -21 14 -13 0 -27 5
-31 11 -6 9 -80 24 -118 23 -13 -1 -23 5 -23 12 0 7 -20 24 -45 37 -33 18 -45
30 -41 43 3 13 -2 17 -24 17 -16 0 -30 -5 -32 -10 -2 -7 -15 -7 -38 0 -19 6
-65 7 -101 4 -62 -5 -68 -4 -90 19 -22 23 -26 24 -56 11 -18 -8 -33 -19 -33
-24 0 -6 -13 -10 -30 -10 -23 0 -30 4 -30 20 0 11 -4 20 -9 20 -20 0 -41 -13
-41 -25 0 -8 -21 -13 -66 -14 -55 -1 -65 1 -61 13 4 10 1 13 -9 9 -7 -3 -14
-9 -14 -14 0 -5 -36 -9 -80 -9 -88 0 -123 -11 -138 -45 -10 -21 -48 -34 -119
-38 -15 -1 -23 -8 -23 -19 0 -13 -8 -18 -25 -18 -17 0 -29 -8 -37 -25 -6 -14
-19 -25 -29 -25 -10 0 -20 -4 -23 -9 -3 -5 -22 -12 -41 -15 -38 -7 -37 -5 -38
-118 0 -21 -3 -38 -7 -38 -14 0 -40 -62 -42 -104 -2 -25 -6 -46 -9 -46 -4 0
-1 -17 6 -37 7 -21 11 -56 9 -78 -4 -31 -6 -332 -3 -415 0 -8 -2 -72 -4 -142
-4 -117 -6 -129 -26 -145 -21 -17 -22 -19 -6 -57 15 -35 15 -41 0 -73 -10 -20
-19 -71 -22 -117 -6 -111 -10 -129 -30 -122 -11 5 -14 2 -9 -9 12 -32 -87 -43
-122 -13 -11 10 -36 14 -74 12 -51 -2 -60 1 -77 22 -13 16 -29 24 -50 24 -35
0 -80 20 -100 44 -8 10 -29 16 -53 16 -45 0 -78 14 -78 34 0 21 -40 42 -85 45
-24 1 -49 10 -62 23 -18 16 -35 21 -83 20 -45 0 -65 4 -78 17 -22 22 -47 32
-97 38 -79 8 -129 7 -133 -5 -2 -7 -17 -12 -33 -12 -16 0 -41 -7 -54 -16 -14
-9 -32 -13 -45 -9 -15 5 -28 -2 -51 -24 -17 -17 -36 -31 -42 -31 -7 -1 -21
-15 -32 -33 -19 -29 -26 -33 -89 -40 -66 -7 -69 -6 -96 20 -22 23 -29 42 -38
113 -15 109 -18 173 -8 188 4 7 6 56 4 110 -3 111 2 243 10 256 6 10 5 52 -3
181 -17 272 -24 321 -46 341 -11 9 -19 27 -19 39 0 11 -5 26 -11 32 -6 6 -11
17 -13 24 -6 35 -69 139 -111 184 -26 28 -54 60 -62 73 -10 14 -25 22 -44 22
-16 0 -29 5 -29 11 0 5 -5 7 -11 4 -6 -4 -22 4 -36 16 l-25 24 -375 -2 c-207
-2 -381 1 -387 6 -15 11 -56 21 -56 12 0 -12 -89 -31 -148 -31 -54 0 -60 -2
-97 -40 -21 -22 -47 -40 -57 -40 -11 0 -15 -5 -12 -14 5 -14 -10 -29 -34 -32
-21 -4 -43 -26 -38 -39 2 -7 -1 -21 -8 -31 -17 -24 -27 -76 -26 -137 1 -27 -4
-55 -11 -63 -12 -14 -13 -78 -7 -331 2 -84 0 -153 -5 -153 -4 0 -6 -36 -4 -80
2 -44 1 -81 -2 -82 -4 -2 -86 -161 -105 -205 -1 0 -10 -3 -21 -5 -11 -1 -30
-17 -42 -34 -19 -28 -29 -32 -85 -37 -35 -3 -67 -1 -72 4 -6 5 -26 9 -46 9
-20 0 -40 4 -46 9 -10 11 -78 24 -111 22 -16 0 -23 5 -23 18 0 22 -19 28 -115
30 -82 2 -125 9 -143 24 -10 8 -16 7 -22 -2 -6 -11 -17 -10 -60 2 -39 12 -57
13 -70 5 -13 -8 -41 -8 -106 1 -83 12 -89 11 -103 -7 -10 -12 -34 -22 -61 -26
-44 -6 -80 -12 -90 -16 -3 -1 -9 -3 -15 -4 -19 -2 -55 -31 -55 -43 0 -20 -42
-43 -80 -43 -27 0 -42 7 -63 31 -15 17 -27 37 -27 45 0 8 -9 14 -20 14 -27 0
-43 43 -36 95 3 22 5 57 5 78 1 23 8 44 21 57 20 20 20 20 0 20 -24 0 -25 11
-5 51 12 22 15 51 11 115 -3 60 0 96 10 120 8 19 18 72 23 118 4 46 12 90 17
97 4 8 9 41 11 74 1 33 5 107 9 165 3 58 7 174 8 257 1 84 5 155 8 158 3 3 3
25 1 48 -3 38 -4 122 -2 187 1 14 1 34 0 45 -2 28 -3 107 -2 125 0 8 0 67 0
130 -2 179 -2 183 0 215 1 31 -3 186 -14 465 -3 91 -5 183 -4 205 1 22 1 49 1
60 -3 37 -13 409 -13 460 -1 146 -1 224 0 255 0 19 -9 61 -20 92 -19 54 -19
59 -4 89 12 22 15 44 10 78 -5 41 -12 233 -16 446 0 44 -5 85 -10 91 -9 12
-13 94 -7 169 2 28 0 72 -4 98 -7 34 -6 53 3 63 9 11 9 14 0 14 -7 0 -10 4 -7
9 4 5 1 11 -5 13 -8 3 -6 9 5 20 18 19 22 83 5 93 -7 5 -8 22 -3 49 4 22 9
106 10 186 3 134 11 329 19 425 7 82 8 243 1 253 -3 5 1 29 9 51 9 26 17 101
20 198 4 86 9 162 13 167 3 6 7 54 8 106 1 120 12 229 26 256 10 21 8 58 -7
130 -4 19 -1 50 9 77 20 58 16 215 -5 228 -8 5 -31 12 -51 15 -34 6 -38 10
-38 35 0 20 -5 29 -16 29 -9 0 -29 11 -46 25 -16 14 -37 25 -47 25 -41 0 -101
48 -73 58 12 4 3 41 -9 43 -5 1 -13 2 -19 3 -20 2 -68 93 -63 120 3 14 -1 33
-8 43 -10 11 -14 48 -15 116 -1 70 -5 101 -14 107 -10 6 -11 12 -3 22 20 25
33 84 37 168 2 47 7 93 11 103 4 9 5 26 2 37 -3 11 -1 20 3 20 16 0 22 41 9
56 -10 12 -10 17 -1 23 12 7 36 167 27 181 -10 17 35 88 60 94 18 5 25 13 25
32 0 14 4 23 10 19 6 -3 10 2 10 12 0 10 10 38 22 63 12 25 20 51 19 58 -1 7
5 19 14 28 8 8 15 27 15 40 0 16 15 40 40 65 22 22 40 46 40 54 0 8 7 15 16
15 24 0 43 30 44 65 0 36 54 85 93 85 21 0 25 6 31 40 5 31 13 43 34 53 15 6
29 14 32 17 3 3 12 10 21 15 9 6 35 23 58 39 34 24 52 29 94 28 29 -1 67 4 85
11 31 11 36 10 54 -13 17 -21 22 -22 40 -11 26 16 58 22 58 11 0 -4 9 -6 19
-3 29 7 61 -14 61 -41 0 -21 6 -25 58 -31 31 -5 67 -7 79 -6 12 1 31 -7 43
-19 16 -16 25 -19 33 -11 15 15 48 14 42 -2 -6 -14 78 -37 140 -37 22 0 45 -4
50 -8 16 -12 16 -32 0 -32 -32 0 -13 -15 21 -17 19 -1 42 -7 49 -13 10 -8 19
-8 34 -1 35 19 60 13 76 -20 11 -21 21 -28 33 -25 9 3 34 8 55 11 29 5 37 3
37 -9 0 -16 16 -21 58 -17 12 1 30 -5 38 -14 9 -9 33 -15 60 -15 51 0 84 -14
84 -35 0 -8 -11 -17 -25 -21 -46 -11 -26 -20 35 -16 42 3 60 1 60 -7 0 -8 18
-12 53 -11 84 2 190 -12 205 -26 7 -8 22 -14 32 -14 10 0 22 -4 25 -10 3 -5
10 -10 16 -10 5 0 9 5 9 10 0 6 -7 10 -15 10 -8 0 -15 5 -15 10 0 6 23 10 50
10 38 0 50 -4 50 -15 0 -24 158 -17 165 7 3 9 20 23 38 31 42 21 80 70 64 86
-8 8 -8 14 1 23 7 7 12 20 12 30 0 11 12 30 26 43 15 14 22 25 15 25 -6 0 -11
7 -11 15 0 8 5 15 10 15 6 0 8 11 4 25 -3 14 -1 31 4 38 7 8 8 26 3 49 -5 21
-7 39 -5 41 11 11 11 102 -1 130 -10 23 -10 37 -3 51 8 14 8 21 0 24 -7 2 -8
23 -5 59 5 45 3 57 -10 65 -9 4 -14 14 -11 22 3 7 0 33 -6 57 -6 24 -11 66
-10 93 1 29 -4 52 -11 57 -7 4 -13 35 -15 76 -3 82 -21 177 -34 181 -6 2 -8 8
-5 13 3 5 1 18 -6 30 -7 14 -7 24 -1 28 5 3 13 16 16 29 6 18 2 28 -20 45 -16
12 -32 21 -36 20 -12 -4 -9 21 6 58 12 29 12 38 0 60 -14 27 -14 174 0 197 3
6 2 13 -3 17 -13 8 -12 84 1 118 8 22 8 31 -1 36 -17 11 -2 41 25 52 13 4 24
15 24 23 0 16 23 28 64 33 16 2 35 8 41 13 17 14 129 27 201 23 33 -1 71 -3
85 -3 15 0 43 -7 62 -15 20 -8 60 -15 89 -15 59 0 83 -11 83 -36 0 -11 10 -18
30 -20 44 -4 99 -15 108 -21 4 -3 3 -11 -3 -18 -9 -11 -4 -16 27 -24 21 -6 47
-11 58 -11 11 0 37 -11 57 -25 20 -13 55 -27 77 -31 27 -4 41 -12 41 -22 0 -8
3 -13 6 -9 4 3 21 -5 39 -18 18 -15 45 -25 63 -25 18 0 32 -4 32 -9 0 -5 23
-12 51 -16 28 -4 60 -15 70 -24 25 -21 67 -29 102 -20 15 4 49 4 76 0 26 -4
59 -4 72 1 15 6 31 5 45 -3 23 -12 59 1 80 29 6 8 36 17 70 21 50 5 61 10 71
31 11 23 55 49 155 93 20 9 42 28 50 44 8 17 26 32 46 39 19 6 37 15 40 20 10
13 50 34 66 34 7 0 24 8 37 19 13 10 40 21 59 25 48 10 80 27 80 42 0 18 42
28 91 21 51 -7 76 0 82 23 3 13 18 20 53 26 35 5 55 15 76 38 15 17 28 27 28
23 0 -5 18 2 40 14 24 14 40 30 40 41 0 14 20 28 70 51 42 19 70 38 70 47 0
16 10 35 53 98 27 42 36 82 17 82 -19 0 -10 30 14 51 19 17 23 26 16 44 -5 12
-6 41 -3 65 5 33 2 45 -11 52 -17 10 -46 70 -46 97 0 10 -18 27 -40 40 -22 12
-40 26 -40 32 0 5 -6 9 -13 9 -7 0 -21 19 -32 41 -38 81 -37 79 -83 79 -42 0
-44 1 -38 25 5 18 2 25 -9 25 -8 0 -15 3 -15 8 0 4 -21 8 -47 8 -27 1 -69 5
-95 9 -34 5 -48 4 -48 -4 0 -20 -20 -12 -31 13 -16 34 -52 48 -86 35 -17 -6
-57 -8 -98 -5 -38 4 -160 6 -270 6 -110 0 -211 0 -225 0 -266 11 -416 1 -427
-27 -4 -11 -22 -14 -72 -11 -58 3 -66 1 -65 -14 1 -10 -3 -18 -9 -18 -5 0 -15
-7 -21 -15 -6 -8 -30 -16 -53 -17 -24 -2 -43 -7 -43 -11 0 -5 -5 -5 -12 -1
-19 12 -108 4 -146 -13 -20 -9 -41 -17 -47 -18 -5 0 -16 -4 -22 -8 -7 -5 -21
-4 -30 2 -22 12 -69 -11 -78 -38 -8 -27 -56 -44 -107 -38 -24 3 -48 1 -55 -5
-6 -5 -31 -9 -55 -10 -24 0 -47 -3 -52 -6 -5 -3 -25 -6 -43 -8 -19 -2 -42 -12
-51 -22 -13 -14 -26 -18 -54 -14 -29 3 -39 0 -44 -12 -12 -30 -56 -43 -159
-45 -91 -2 -141 -6 -155 -11 -3 -1 -8 -2 -12 -2 -3 1 -12 -5 -18 -13 -7 -8
-25 -15 -41 -15 -26 0 -29 -3 -24 -23 6 -22 4 -23 -25 -19 -18 2 -48 -1 -68
-7 -53 -17 -126 -19 -128 -3 -3 26 -5 26 -22 6 -22 -27 -68 -39 -79 -21 -10
18 -77 29 -106 18 -12 -5 -43 -11 -69 -15 -45 -7 -46 -6 -53 23 -9 41 -20 46
-39 16 -9 -14 -22 -23 -28 -19 -5 4 -62 6 -126 5 l-115 -1 -31 -35 c-31 -34
-56 -45 -56 -25 0 7 -6 7 -19 0 -12 -6 -22 -6 -25 -1 -10 16 -45 0 -66 -29
-14 -19 -16 -30 -8 -32 7 -3 8 -10 3 -17 -8 -13 -71 -11 -106 3 -9 4 -23 1
-30 -7 -15 -14 -71 -35 -99 -36 -44 -2 -80 -15 -85 -30 -8 -26 -35 -21 -42 7
-5 22 -9 23 -50 17 -24 -3 -50 -2 -56 3 -7 5 -28 9 -47 9 -33 -1 -35 1 -35 34
0 35 -32 79 -59 79 -7 0 -16 9 -19 20 -3 12 -14 20 -26 20 -14 0 -21 6 -21 19
0 11 -4 23 -10 26 -5 3 -10 18 -10 33 -1 29 -23 66 -33 55 -4 -3 -7 3 -7 15 0
11 5 24 10 27 6 4 2 13 -11 24 -16 13 -22 30 -25 75 -1 33 1 67 7 77 6 11 6
20 -1 24 -5 3 -10 19 -10 35 0 21 -6 29 -25 34 -24 6 -37 46 -15 46 13 0 13
27 1 32 -5 2 -7 15 -4 31 4 18 12 27 25 27 18 0 19 6 15 83 -3 45 -3 106 0
135 6 54 6 54 35 48 29 -6 30 -5 23 22 -3 15 -13 34 -21 43 -14 15 -10 49 6
49 4 0 10 21 14 48 28 209 36 260 41 282 3 14 7 59 8 102 2 68 5 78 27 96 20
17 23 23 13 33 -19 19 -16 38 11 70 19 23 23 35 17 56 -8 30 -4 62 7 64 22 2
44 8 49 12 10 11 20 75 13 88 -14 25 7 130 31 155 12 13 23 32 24 41 1 10 7
28 13 40 7 12 12 29 12 37 0 16 7 18 60 20 42 2 118 46 131 77 6 16 16 29 21
29 6 0 24 10 41 22 21 15 42 21 72 19 23 -1 55 4 71 10 16 7 32 12 36 11 3 -1
11 12 17 28 11 32 46 41 69 18 10 -10 15 -10 21 1 6 9 18 11 34 7 20 -5 27 -2
32 14 3 11 10 20 15 20 4 0 10 10 13 21 4 14 11 20 21 16 8 -3 43 -2 76 4 48
8 68 7 89 -4 26 -13 31 -12 66 14 39 30 81 35 135 20 16 -5 33 -2 46 6 33 21
114 28 126 12 7 -11 12 -10 26 8 17 22 62 32 62 13z m-3241 -767 c7 -13 21
-17 50 -17 47 2 54 -10 54 -95 0 -44 4 -59 21 -73 12 -9 26 -17 31 -18 6 0 10
-31 10 -72 0 -40 4 -79 9 -86 7 -9 6 -20 -2 -33 -7 -11 -10 -24 -7 -29 3 -5
-6 -29 -19 -54 -33 -62 -42 -120 -23 -149 12 -19 12 -24 1 -35 -9 -8 -11 -23
-7 -42 4 -23 2 -30 -11 -30 -18 0 -22 -15 -6 -25 15 -9 13 -58 -2 -53 -24 8
-50 -39 -47 -83 3 -29 -1 -43 -13 -50 -10 -6 -16 -24 -16 -55 -1 -25 -7 -52
-13 -60 -9 -11 -7 -14 10 -14 25 0 26 -7 6 -30 -15 -17 -24 -161 -11 -191 4
-10 2 -20 -3 -24 -6 -3 -9 -10 -6 -15 3 -5 6 -43 7 -85 0 -41 5 -75 10 -75 5
0 6 -5 2 -12 -4 -6 -6 -43 -4 -82 2 -39 3 -102 3 -141 -1 -38 3 -75 9 -82 5
-7 5 -13 -1 -17 -5 -3 -7 -14 -4 -25 3 -11 -2 -21 -12 -24 -12 -5 -14 -11 -6
-25 11 -20 4 -62 -10 -62 -5 0 -16 -14 -25 -32 -9 -18 -23 -38 -30 -46 -8 -7
-15 -18 -15 -23 -1 -5 -2 -13 -3 -17 0 -5 -9 -17 -19 -26 -10 -10 -16 -23 -14
-29 4 -12 -65 -67 -82 -67 -5 0 -11 -4 -13 -9 -1 -5 -16 -10 -33 -12 -34 -4
-65 -25 -65 -46 0 -9 -8 -11 -26 -7 -19 5 -32 0 -54 -21 -17 -16 -35 -25 -44
-22 -9 4 -31 0 -50 -8 -18 -8 -67 -16 -107 -19 -41 -2 -74 -5 -74 -6 0 -6 -48
-13 -97 -14 -45 -1 -62 -6 -82 -25 -21 -20 -32 -23 -67 -18 -24 3 -50 1 -61
-6 -15 -9 -20 -9 -27 1 -7 12 -12 12 -30 1 -11 -8 -21 -19 -21 -24 0 -6 -10
-11 -22 -12 -11 -1 -24 -7 -27 -12 -4 -6 -15 -10 -26 -10 -11 0 -36 -3 -55 -7
-19 -3 -75 -7 -125 -8 -49 0 -93 -5 -97 -10 -3 -5 -32 -11 -65 -13 -32 -3 -65
-10 -73 -18 -10 -9 -37 -12 -82 -10 -54 3 -68 1 -68 -11 0 -8 -6 -14 -12 -15
-7 -1 -2 -4 12 -8 14 -4 26 -14 28 -23 2 -13 -10 -17 -70 -21 -40 -3 -120 -4
-178 -3 -109 2 -131 -1 -109 -14 7 -5 14 -15 15 -22 1 -11 -11 -14 -56 -12
-32 1 -63 5 -69 9 -7 4 -17 2 -24 -4 -7 -5 -43 -12 -80 -15 -59 -5 -107 -21
-107 -36 0 -13 -193 -19 -220 -6 -10 4 -24 -1 -37 -14 -12 -11 -27 -20 -32
-20 -6 0 -15 -9 -21 -20 -9 -16 -8 -18 5 -14 9 4 15 0 15 -9 0 -20 -24 -23
-145 -17 -55 3 -127 2 -160 -1 -33 -3 -63 -1 -66 4 -4 5 -15 -2 -24 -17 -9
-14 -21 -23 -27 -20 -5 3 -14 1 -21 -4 -19 -14 -56 -21 -63 -11 -4 7 -98 12
-174 9 -8 -1 -55 -3 -105 -5 -134 -6 -155 -11 -155 -40 0 -21 -5 -25 -30 -25
-21 0 -28 4 -24 14 3 8 -4 16 -18 20 -35 9 -58 7 -58 -4 0 -6 -11 -23 -25 -37
l-24 -27 -10 27 c-12 31 -44 36 -71 12 -20 -18 -250 -33 -250 -16 0 10 -79 10
-125 1 -6 -2 -22 -2 -37 -1 -20 1 -26 5 -22 16 4 10 0 15 -15 15 -14 0 -25 9
-31 26 -9 24 -13 25 -50 19 -47 -8 -74 7 -65 36 5 14 1 19 -12 19 -10 0 -27 7
-37 15 -22 17 -73 20 -78 5 -7 -21 -47 3 -58 36 -10 30 -16 34 -46 34 -19 0
-34 5 -34 10 0 6 -7 10 -15 10 -9 0 -19 10 -24 23 -5 12 -21 31 -35 42 -14 11
-26 28 -26 38 0 14 -5 16 -25 11 -22 -5 -55 13 -55 31 0 3 -12 16 -27 29 -18
15 -27 34 -28 52 0 18 -5 28 -13 26 -9 -2 -11 11 -8 48 4 37 1 59 -13 83 -12
21 -16 44 -13 65 4 27 8 32 24 26 38 -12 50 34 18 66 l-20 20 27 11 c39 15 66
41 52 50 -18 11 0 49 23 49 27 0 18 23 -13 30 -26 6 -38 38 -19 50 9 6 9 12 0
30 -6 12 -10 23 -8 24 13 11 74 36 85 36 11 0 14 12 12 46 -3 42 0 49 31 75
26 21 30 29 18 29 -23 0 -24 46 -3 86 8 16 15 37 15 46 0 34 12 48 41 48 22 0
29 5 29 20 0 11 5 20 10 20 6 0 10 12 10 26 0 14 6 38 14 52 7 15 18 40 22 57
8 24 16 31 47 36 46 7 57 17 34 30 -20 12 -22 35 -4 46 8 4 17 16 20 26 4 10
11 15 17 12 6 -3 13 2 17 11 4 10 2 19 -5 22 -25 8 -13 51 18 67 23 12 28 20
22 32 -10 17 4 89 20 110 6 7 25 15 44 19 22 4 34 12 34 23 0 9 7 24 14 34 7
9 11 28 9 42 -7 36 20 59 63 52 18 -3 34 -4 34 -2 0 2 3 11 6 19 5 12 2 15
-11 10 -13 -5 -16 -2 -13 16 2 16 19 33 48 50 53 31 59 49 31 89 -19 27 -20
31 -5 45 8 9 19 16 24 16 16 0 18 41 3 71 -12 23 -12 33 -3 44 14 17 50 20 50
4 0 -25 63 54 65 82 2 16 15 48 31 70 l28 41 51 -7 c27 -4 71 -7 98 -8 26 0
47 -4 47 -9 0 -17 2 -23 12 -35 6 -7 19 -13 28 -13 10 0 21 -6 23 -12 3 -7 6
-3 6 9 1 16 9 25 27 29 30 8 74 -10 74 -29 0 -8 12 -19 26 -25 14 -7 23 -15
21 -20 -3 -4 15 -5 39 -3 36 2 53 -2 82 -23 30 -21 50 -26 95 -26 31 0 57 4
57 9 0 5 12 7 28 5 15 -3 34 -5 42 -5 34 -1 119 -31 124 -45 5 -12 9 -12 25
-2 16 10 27 10 56 -1 20 -7 39 -10 42 -7 3 3 14 1 24 -4 12 -7 20 -7 24 0 7
11 58 14 68 3 4 -4 58 -5 120 -4 83 2 116 6 129 18 11 10 24 12 40 7 13 -4 27
-8 31 -9 4 0 11 -5 15 -11 4 -6 18 -10 32 -8 64 6 150 23 168 33 29 15 64 14
89 -4 17 -12 28 -13 49 -5 15 6 34 8 41 5 8 -3 23 0 34 5 14 8 19 7 19 -2 0
-9 3 -10 8 -2 4 6 24 11 44 10 20 0 36 3 35 9 -1 5 24 14 56 19 48 8 61 7 73
-6 13 -13 22 -13 45 -5 16 6 29 17 29 23 0 15 66 38 102 36 15 -1 29 2 32 6 3
5 31 9 63 11 32 1 78 9 102 18 31 12 48 14 60 6 18 -11 61 3 61 20 0 5 11 6
25 3 29 -7 85 18 85 38 0 21 60 29 80 11 15 -13 22 -13 66 1 27 9 54 21 60 26
6 4 31 8 55 7 24 0 60 4 79 10 19 6 47 11 62 11 16 0 28 4 28 8 0 5 12 14 26
20 14 7 22 17 19 22 -11 18 48 32 117 28 37 -2 69 0 71 6 2 5 36 10 77 11 104
4 165 15 208 36 42 22 62 24 62 7 1 -7 8 -1 16 15 18 33 51 36 56 5 2 -14 9
-22 18 -20 8 2 31 6 50 10 19 3 41 14 48 24 17 23 38 23 51 1z m58 -3744 c17
-6 23 -16 23 -39 0 -29 24 -63 51 -72 11 -4 14 -32 14 -127 0 -68 -3 -128 -7
-134 -4 -6 -2 -19 3 -29 7 -14 6 -18 -5 -18 -18 0 -31 -23 -40 -71 -4 -23 -17
-43 -36 -58 -17 -12 -30 -31 -30 -43 0 -24 -46 -78 -67 -78 -15 0 -36 -37 -28
-50 3 -6 -1 -10 -10 -10 -9 0 -14 -4 -11 -9 3 -5 -1 -12 -10 -15 -8 -3 -13
-10 -9 -15 3 -5 -6 -21 -20 -35 -14 -14 -25 -32 -25 -41 0 -8 -4 -15 -10 -15
-5 0 -10 -12 -10 -26 0 -14 -4 -23 -8 -20 -11 6 -52 -30 -52 -45 0 -6 -11 -20
-25 -31 -14 -11 -25 -26 -25 -33 0 -8 -9 -23 -21 -34 l-21 -19 21 -12 c22 -11
22 -11 -9 -40 -19 -18 -28 -34 -24 -44 3 -9 1 -16 -6 -16 -6 0 -9 -3 -7 -7 3
-5 2 -39 -2 -78 -8 -73 2 -158 19 -163 6 -2 10 -15 10 -28 0 -13 4 -24 8 -24
18 0 7 -74 -14 -95 -15 -15 -20 -30 -17 -48 4 -20 1 -27 -10 -27 -8 0 -17 -7
-21 -15 -3 -8 -12 -15 -19 -15 -8 0 -22 -9 -32 -20 -10 -11 -24 -20 -32 -20
-7 0 -13 -6 -13 -13 0 -26 -89 -97 -178 -141 -50 -25 -96 -46 -102 -46 -6 0
-8 -5 -5 -10 3 -6 -5 -14 -20 -20 -14 -5 -28 -16 -31 -24 -3 -8 -39 -25 -80
-37 -41 -12 -77 -26 -80 -31 -3 -4 -23 -8 -45 -8 -21 0 -39 -4 -39 -10 0 -5
-8 -10 -18 -10 -10 0 -27 -7 -40 -15 -12 -9 -27 -15 -34 -14 -27 3 -38 -2 -38
-16 0 -20 -42 -37 -99 -41 -24 -2 -47 -7 -50 -11 -6 -9 -60 -17 -121 -17 -19
-1 -38 -5 -42 -11 -4 -5 -50 -11 -102 -12 -54 -1 -105 -7 -118 -15 -13 -6 -41
-13 -63 -15 -45 -2 -137 -20 -175 -34 -14 -5 -55 -8 -91 -7 -36 0 -71 -2 -77
-6 -10 -6 -88 -14 -222 -21 -115 -7 -164 -16 -177 -33 -10 -12 -27 -14 -88 -9
-58 5 -83 3 -105 -8 -21 -11 -40 -13 -72 -7 -56 11 -108 -3 -134 -35 -19 -24
-25 -26 -80 -20 -36 4 -63 12 -70 22 -10 13 -16 13 -40 4 -56 -24 -183 -46
-194 -35 -7 7 -19 5 -39 -7 -36 -21 -61 -22 -61 -2 0 19 -57 20 -79 1 -24 -20
-75 -34 -104 -29 -14 3 -41 0 -60 -6 -49 -16 -77 -21 -77 -13 0 4 -26 5 -57 3
-32 -3 -75 -5 -95 -5 -21 -1 -38 -4 -38 -8 0 -5 5 -8 10 -8 6 0 10 -6 10 -14
0 -14 -12 -17 -140 -37 -77 -12 -112 -13 -161 -4 -27 5 -44 2 -64 -11 -16 -11
-43 -17 -71 -16 -33 2 -49 -3 -65 -19 -18 -18 -25 -20 -40 -10 -14 8 -38 8
-86 1 -38 -5 -87 -10 -110 -10 -30 0 -58 -9 -93 -31 -38 -24 -58 -30 -85 -26
-19 3 -38 1 -41 -4 -3 -5 -10 -7 -15 -3 -5 3 -17 0 -25 -7 -11 -9 -20 -9 -37
0 -15 7 -70 10 -167 7 -80 -2 -150 0 -156 5 -7 6 -30 6 -58 -1 -38 -8 -53 -7
-86 7 -23 10 -40 25 -40 34 0 10 -25 29 -64 49 -35 18 -69 43 -74 54 -24 54
-30 76 -25 95 3 12 -4 53 -17 92 -19 60 -20 77 -11 117 6 26 16 90 22 142 6
52 12 102 13 111 1 9 10 24 20 34 11 12 14 21 7 28 -12 12 -3 173 12 201 12
23 10 155 -2 170 -5 6 -7 35 -5 64 2 31 0 52 -6 52 -16 0 -12 56 5 70 8 7 15
18 15 26 0 7 7 17 16 22 9 5 20 30 25 57 6 31 18 55 34 69 17 15 24 28 19 39
-3 10 -1 17 5 17 7 0 18 15 26 34 8 19 19 37 24 40 5 3 7 24 4 47 -5 31 -1 47
16 69 12 16 26 52 33 80 7 29 17 50 25 50 20 0 16 18 -7 30 -29 15 -25 35 15
72 32 30 35 36 26 65 -6 22 -5 43 5 72 7 22 11 47 8 56 -4 9 2 25 14 38 11 12
24 35 28 51 7 28 8 28 57 22 28 -4 58 -11 66 -15 33 -17 141 -23 173 -10 22 9
33 10 35 2 3 -7 33 -9 83 -7 65 3 81 0 88 -13 7 -12 19 -14 53 -9 115 17 129
18 129 7 0 -8 11 -10 33 -6 30 5 183 15 292 19 28 1 55 5 60 8 6 3 28 7 50 9
37 3 40 2 37 -21 -1 -14 1 -20 5 -14 18 26 61 36 169 39 63 2 114 0 114 -4 0
-5 13 -8 30 -7 24 1 30 6 30 22 0 14 8 24 23 27 33 9 62 2 60 -14 -4 -20 99
-9 192 21 94 29 145 39 145 28 0 -5 6 -6 12 -1 7 4 49 8 93 8 58 1 91 6 119
21 29 14 40 16 43 7 5 -15 69 -18 77 -4 9 13 88 21 109 9 14 -7 33 -5 69 7 34
11 54 13 62 6 14 -11 35 -12 245 -7 140 3 154 2 158 -14 6 -21 62 -35 77 -20
5 5 31 10 56 10 37 0 52 -5 70 -25 27 -28 46 -31 75 -9 13 9 30 12 49 8 21 -5
27 -3 21 6 -6 10 -1 11 19 6 17 -4 25 -3 22 3 -8 12 24 23 38 13 31 -25 57
-20 91 15 33 34 40 36 154 52 109 16 121 20 144 47 25 29 26 29 56 11 19 -11
32 -14 36 -7 3 5 14 10 24 10 9 0 26 8 37 18 10 9 30 19 44 20 14 2 30 7 35
12 9 7 84 17 180 26 16 1 37 -2 46 -6 17 -10 89 8 89 22 0 19 70 37 124 31 32
-3 97 1 158 11 57 10 108 16 113 15 6 -1 24 3 40 10 46 19 100 27 91 13 -9
-15 6 -16 20 -2 12 12 182 29 218 23 13 -3 27 0 30 6 8 13 174 5 213 -10z
m-440 -3269 c1 -52 2 -114 2 -137 1 -30 5 -43 15 -43 8 0 16 -7 20 -15 4 -10
-1 -15 -14 -15 -23 0 -27 -18 -5 -26 17 -7 20 -31 4 -36 -7 -2 -12 -40 -13
-98 -2 -96 -10 -125 -48 -166 -20 -22 -34 -114 -18 -114 13 0 -11 -72 -32 -96
-10 -11 -18 -26 -18 -33 0 -7 -11 -27 -25 -45 -14 -18 -25 -45 -25 -60 0 -38
-28 -76 -55 -76 -12 0 -28 -7 -35 -15 -9 -11 -9 -15 -1 -15 8 0 9 -5 2 -19 -6
-10 -7 -21 -4 -25 3 -3 1 -6 -5 -6 -6 0 -9 -6 -6 -14 6 -15 -42 -46 -71 -46
-8 0 -15 -9 -15 -20 0 -11 -4 -20 -9 -20 -5 0 -13 -10 -17 -22 -8 -27 -62 -78
-81 -78 -8 0 -16 -7 -19 -15 -4 -8 -15 -15 -25 -15 -14 0 -19 -7 -19 -25 0
-18 -8 -28 -27 -36 -16 -6 -35 -15 -43 -20 -65 -40 -78 -52 -73 -65 3 -8 -1
-14 -8 -14 -7 0 -9 -3 -6 -7 16 -15 -18 -33 -63 -33 -38 0 -54 -6 -79 -27 -17
-15 -31 -37 -31 -49 0 -14 -10 -26 -29 -34 -33 -13 -111 -82 -111 -97 0 -21
-43 -48 -83 -50 -22 -2 -43 -7 -46 -11 -3 -5 -14 -12 -25 -15 -12 -5 -17 -14
-13 -27 5 -19 1 -20 -56 -19 -57 2 -62 0 -88 -30 -22 -27 -32 -32 -51 -26 -12
4 -26 13 -30 19 -6 8 -11 6 -18 -4 -6 -10 -35 -17 -94 -20 -71 -5 -90 -10
-110 -29 -30 -28 -84 -41 -110 -27 -14 8 -20 8 -24 -3 -7 -21 -65 -71 -81 -71
-6 0 -30 -11 -53 -24 -37 -21 -43 -29 -43 -57 0 -18 -6 -34 -13 -37 -7 -2 -17
-15 -22 -28 -5 -13 -16 -24 -24 -24 -19 0 -24 -28 -25 -136 -1 -49 -5 -103 -9
-119 -5 -15 -6 -49 -2 -74 3 -25 4 -127 3 -226 -1 -99 -2 -195 -2 -214 0 -18
-8 -42 -18 -53 -13 -15 -18 -41 -21 -106 -2 -48 -8 -130 -13 -182 -5 -52 -6
-102 -2 -110 10 -23 10 -34 1 -46 -4 -6 -3 -26 2 -44 10 -35 -6 -62 -22 -37
-5 8 -8 4 -8 -9 0 -11 -7 -35 -16 -53 -15 -31 -15 -33 6 -51 15 -13 21 -27 17
-40 -3 -11 -1 -23 4 -26 5 -3 9 -14 9 -25 0 -11 -4 -18 -9 -15 -5 3 -14 -1
-21 -8 -9 -12 -6 -18 19 -31 25 -12 31 -22 31 -48 0 -35 10 -213 14 -263 3
-32 65 -154 78 -154 5 0 8 -10 8 -23 0 -14 15 -34 45 -57 40 -32 44 -38 38
-68 -5 -30 -1 -38 36 -72 22 -21 41 -45 41 -54 0 -9 12 -19 28 -22 15 -4 43
-16 62 -27 29 -16 52 -19 147 -18 91 1 120 -2 151 -17 41 -20 62 -19 62 3 0
19 68 31 89 17 53 -38 71 -43 93 -27 25 17 58 20 58 5 0 -5 5 -10 10 -10 6 0
10 7 10 15 0 9 9 15 24 15 13 0 29 6 35 14 7 8 27 18 44 21 43 10 65 31 60 58
-3 15 6 33 26 55 17 18 31 40 31 48 0 8 8 31 17 52 9 20 17 54 18 75 1 21 8
42 16 47 11 8 14 50 15 232 1 123 -1 228 -5 233 -11 19 -30 175 -31 260 -1 51
-5 102 -9 120 -1 6 -3 58 -3 118 0 59 -3 107 -7 107 -11 0 -6 334 6 355 6 12
10 59 9 113 -2 74 0 94 12 101 8 5 17 26 19 47 2 24 14 49 28 64 14 14 28 40
31 58 9 47 50 66 120 57 30 -3 56 -11 59 -16 7 -11 55 -12 55 -1 0 13 70 13
98 -1 20 -9 48 -10 102 -5 41 5 101 11 133 14 33 3 57 11 57 17 0 7 7 3 15 -7
8 -11 15 -15 15 -9 0 21 36 24 81 7 24 -8 66 -15 94 -15 27 0 52 -3 55 -7 8
-11 110 -72 121 -72 5 0 9 -7 9 -16 0 -9 9 -28 19 -43 11 -15 21 -48 23 -74 4
-39 1 -50 -19 -69 -20 -18 -23 -31 -23 -87 0 -39 -6 -78 -15 -95 -8 -15 -15
-36 -15 -45 0 -9 -8 -32 -18 -51 -14 -26 -18 -53 -17 -106 2 -64 0 -75 -21
-98 -13 -14 -24 -32 -24 -40 0 -8 -4 -16 -9 -18 -5 -2 -11 -47 -12 -100 -2
-54 -6 -98 -10 -98 -7 0 -25 -46 -35 -91 -3 -13 -8 -59 -11 -102 -5 -62 -10
-81 -26 -92 -14 -10 -18 -22 -15 -44 3 -17 0 -31 -5 -31 -5 0 -7 -7 -3 -15 3
-8 0 -15 -6 -15 -7 0 -7 -4 -1 -12 5 -7 8 -29 6 -48 -2 -19 -4 -47 -5 -62 0
-16 -4 -28 -8 -28 -4 0 -17 -8 -29 -19 -16 -14 -21 -29 -20 -62 0 -24 -2 -59
-6 -77 -4 -19 -3 -38 4 -46 6 -7 8 -16 4 -20 -4 -3 -6 -30 -4 -60 2 -39 -3
-62 -18 -87 -12 -19 -21 -50 -21 -70 0 -20 -3 -39 -7 -43 -5 -5 -8 -131 -3
-131 1 0 4 -15 7 -34 3 -21 -3 -51 -15 -80 -13 -28 -18 -57 -15 -75 4 -19 2
-27 -5 -22 -12 7 -26 -29 -17 -44 3 -5 -2 -32 -11 -60 -9 -27 -14 -62 -11 -77
9 -50 -12 -366 -26 -375 -6 -4 -13 -18 -14 -30 -2 -13 -5 -51 -9 -85 -3 -34
-3 -70 2 -80 14 -33 13 -141 -2 -154 -8 -6 -14 -20 -14 -30 0 -11 -5 -19 -11
-19 -5 0 -7 -4 -4 -10 3 -6 -5 -10 -19 -10 -18 0 -24 -4 -20 -14 4 -10 -6 -16
-34 -21 -28 -4 -43 -13 -50 -31 -11 -22 -17 -24 -76 -24 -36 0 -67 -4 -70 -9
-3 -4 -34 -11 -68 -15 -35 -4 -77 -12 -95 -18 -26 -10 -36 -8 -58 6 -37 24
-138 33 -171 16 -21 -12 -35 -11 -100 8 -41 13 -79 20 -83 18 -4 -3 -24 -1
-44 5 -27 7 -37 15 -37 29 0 17 -7 20 -48 20 -26 0 -52 -4 -58 -9 -5 -6 -28
-6 -58 0 -33 6 -53 6 -62 -2 -7 -6 -35 -9 -61 -8 -108 6 -183 0 -183 -16 0 -8
-6 -15 -14 -15 -7 0 -19 -6 -25 -14 -7 -8 -27 -18 -44 -21 -18 -4 -45 -17 -62
-30 -16 -12 -41 -26 -55 -30 -30 -9 -70 -44 -70 -61 0 -7 -11 -26 -25 -42 -14
-17 -25 -37 -25 -45 0 -8 -7 -17 -15 -21 -8 -3 -15 -14 -15 -25 0 -11 -7 -24
-16 -29 -17 -10 -18 -15 -29 -172 -3 -52 -7 -102 -8 -110 -1 -16 12 -106 19
-129 3 -10 7 -11 19 -1 19 16 23 6 29 -84 5 -62 9 -72 41 -103 21 -20 35 -44
35 -58 0 -17 9 -29 30 -40 17 -9 30 -24 30 -34 0 -26 29 -47 74 -54 22 -4 51
-17 66 -32 14 -14 33 -25 41 -25 8 0 20 -5 26 -11 25 -25 183 -15 183 12 0 5
21 8 48 8 26 -1 77 3 114 8 36 5 75 6 85 2 48 -19 229 2 207 24 -4 3 9 4 27 1
19 -3 59 1 89 9 39 10 106 14 235 12 99 -1 202 2 228 8 33 6 52 5 61 -2 10 -9
20 -9 38 -1 16 8 46 9 88 3 53 -6 224 -8 580 -5 95 1 293 -6 332 -12 30 -5 53
-3 66 5 15 9 26 8 53 -5 20 -9 59 -16 90 -16 30 0 70 0 89 -1 19 -1 61 3 93 8
37 6 78 6 109 1 35 -6 54 -6 63 2 16 14 51 5 58 -14 4 -9 20 -12 53 -10 27 2
51 -1 55 -7 7 -12 79 -30 79 -20 0 10 16 11 134 10 55 0 104 -3 109 -6 5 -3
39 -5 75 -4 44 1 68 -2 74 -11 5 -9 8 -9 8 -1 0 11 16 11 98 -3 17 -3 32 -8
32 -13 0 -4 16 -15 35 -24 40 -19 105 -23 105 -6 0 6 8 8 18 5 9 -3 48 -7 85
-8 38 -1 70 -5 73 -10 3 -4 25 -8 49 -8 24 0 46 -4 49 -9 3 -5 44 -6 91 -3 76
4 85 3 85 -13 0 -13 6 -16 30 -13 16 2 31 1 32 -4 2 -5 18 -3 36 3 36 12 128
7 207 -12 28 -6 65 -11 83 -10 26 1 35 -3 39 -19 3 -12 11 -19 19 -16 7 3 18
-1 24 -9 12 -15 72 -10 78 7 4 10 32 11 32 1 0 -5 59 -9 131 -10 130 -1 131
-2 164 -31 30 -28 36 -30 74 -21 30 7 48 6 64 -3 14 -8 68 -13 155 -14 86 0
137 -5 144 -12 7 -7 20 -12 31 -12 10 0 16 -3 14 -7 -3 -5 23 -8 58 -9 40 0
73 -7 88 -17 20 -13 31 -13 80 -2 48 11 59 11 77 -2 16 -11 36 -14 71 -10 40
5 49 3 54 -12 4 -15 24 -21 98 -30 50 -7 103 -14 117 -16 14 -3 79 -6 144 -7
81 -2 121 -7 123 -15 3 -7 11 -9 19 -6 8 3 21 0 28 -7 9 -7 70 -13 168 -15 84
-2 167 -7 183 -11 17 -3 54 -7 83 -8 35 -1 52 -5 52 -14 0 -7 5 -10 10 -7 6 3
10 0 10 -8 0 -18 10 -19 165 -21 72 -1 140 -5 153 -9 15 -6 28 -4 37 3 8 7 15
9 15 4 0 -5 33 -8 74 -6 52 3 77 0 87 -10 26 -25 140 -49 231 -47 47 1 91 -2
97 -6 6 -3 88 -8 183 -11 94 -3 190 -9 212 -14 54 -12 79 -12 71 0 -4 6 12 10
39 10 39 0 46 -3 46 -20 0 -17 7 -20 51 -20 28 0 59 -5 69 -10 12 -6 21 -6 25
-1 3 6 15 8 28 5 12 -2 99 -6 192 -9 94 -3 175 -6 180 -6 6 0 39 1 75 2 88 3
126 3 255 -5 108 -6 427 -7 495 -2 19 2 59 4 88 5 37 1 52 5 52 15 0 23 64 28
368 31 301 3 335 6 363 31 12 11 49 16 133 19 64 2 120 6 124 9 4 2 37 3 72 2
45 -2 70 1 81 11 19 16 180 37 227 28 24 -5 40 0 65 18 23 17 47 24 86 25 30
1 58 7 62 14 5 8 14 8 36 -1 15 -6 51 -10 80 -9 43 3 54 7 62 26 6 12 17 22
25 22 8 0 18 9 21 21 6 17 13 20 38 17 18 -3 40 -8 50 -13 12 -5 17 -3 17 7 0
24 36 51 59 43 43 -13 151 40 151 74 0 12 49 20 56 9 3 -5 18 5 34 22 18 19
38 30 56 30 41 0 114 38 107 56 -4 11 5 14 44 14 37 0 51 4 61 20 7 11 19 20
26 20 8 0 16 4 18 10 5 15 129 29 179 19 24 -4 47 -8 52 -9 14 0 7 -27 -12
-44 -11 -10 -17 -25 -14 -36 4 -13 -4 -23 -25 -34 -17 -9 -40 -32 -53 -53 -12
-21 -32 -47 -43 -59 -12 -12 -34 -37 -50 -57 -16 -19 -35 -33 -43 -30 -7 3
-13 -1 -13 -9 0 -25 -25 -68 -37 -64 -7 3 -10 -1 -6 -10 3 -8 -9 -31 -28 -52
-55 -62 -79 -92 -79 -97 0 -3 0 -9 0 -15 0 -5 -6 -10 -14 -10 -19 0 -86 -63
-86 -82 0 -8 -11 -20 -25 -26 -14 -6 -25 -18 -25 -25 0 -23 -25 -67 -37 -67
-7 0 -13 -6 -13 -14 0 -8 -3 -16 -8 -18 -22 -10 -80 -92 -77 -109 2 -11 -2
-23 -10 -26 -8 -3 -15 -11 -15 -19 0 -8 -10 -14 -24 -14 -24 0 -36 -16 -36
-50 0 -10 -16 -28 -35 -40 -27 -17 -35 -28 -35 -50 0 -19 -6 -31 -18 -35 -22
-6 -42 -45 -42 -79 0 -15 -9 -27 -26 -35 -15 -6 -24 -14 -21 -17 3 -4 -5 -17
-17 -31 -13 -14 -22 -33 -19 -42 2 -9 -5 -27 -16 -40 -12 -13 -21 -34 -21 -47
0 -13 -9 -28 -20 -34 -11 -6 -29 -31 -40 -55 -11 -24 -29 -52 -39 -62 -10 -10
-22 -29 -26 -43 -4 -14 -16 -35 -27 -46 -10 -12 -18 -25 -17 -30 4 -16 -29
-91 -48 -112 -7 -7 -13 -23 -13 -35 0 -29 -9 -40 -47 -62 -18 -11 -33 -25 -33
-31 0 -11 -17 -22 -38 -24 -14 -2 -42 -33 -42 -47 0 -21 -33 -48 -57 -45 -12
2 -27 -5 -35 -16 -7 -11 -23 -22 -36 -26 -12 -4 -20 -12 -16 -17 9 -16 -76
-89 -133 -115 -29 -12 -53 -28 -53 -33 0 -6 -7 -11 -16 -11 -18 0 -44 -24 -44
-41 0 -19 -31 -49 -50 -49 -11 0 -20 -10 -24 -25 -4 -14 -14 -29 -24 -32 -21
-9 -59 -43 -47 -43 6 0 -10 -11 -34 -24 -25 -13 -48 -33 -52 -45 -6 -14 -17
-21 -33 -21 -16 0 -33 -10 -47 -29 -12 -16 -30 -32 -40 -34 -13 -3 -19 -14
-19 -31 0 -18 -5 -26 -17 -26 -21 0 -104 -29 -85 -30 6 0 12 -4 12 -9 0 -15
-31 -42 -43 -38 -14 4 -47 -23 -47 -39 0 -13 -22 -24 -50 -24 -10 0 -20 -9
-23 -20 -3 -11 -14 -20 -25 -20 -11 0 -28 -12 -38 -27 -24 -37 -47 -54 -58
-43 -12 12 -36 -7 -36 -26 0 -8 -4 -14 -9 -14 -5 0 -28 -18 -51 -40 -23 -23
-58 -47 -76 -55 -19 -8 -34 -19 -34 -24 0 -6 -8 -11 -17 -11 -23 0 -106 -47
-116 -66 -4 -8 -19 -14 -33 -14 -17 0 -27 -8 -35 -27 -5 -14 -17 -32 -26 -38
-9 -7 -14 -19 -10 -27 3 -9 0 -21 -6 -27 -8 -8 -8 -11 1 -11 19 0 3 -51 -22
-72 -16 -13 -18 -19 -9 -29 9 -9 6 -23 -13 -60 -13 -27 -33 -55 -44 -61 -11
-7 -20 -21 -20 -30 0 -10 -4 -18 -10 -18 -5 0 -10 -5 -10 -12 0 -19 -42 -58
-62 -58 -12 0 -16 -4 -12 -11 5 -8 -1 -10 -19 -7 -19 4 -34 -3 -58 -24 -29
-27 -33 -28 -55 -13 -27 17 -54 20 -54 4 0 -6 -8 -8 -20 -4 -10 3 -28 1 -40
-5 -14 -8 -26 -8 -42 1 -11 6 -53 12 -92 14 -39 1 -83 8 -99 15 -21 10 -30 11
-39 2 -30 -30 -118 9 -104 45 4 10 -10 13 -57 14 -34 0 -93 3 -132 6 -38 3
-91 5 -117 4 -27 -1 -48 3 -48 9 0 5 -9 10 -20 10 -11 0 -20 6 -20 14 0 18
-64 25 -97 12 -15 -6 -27 -5 -38 4 -8 7 -32 14 -51 16 -20 2 -41 8 -48 13 -6
5 -31 10 -54 9 -33 0 -61 11 -134 53 -72 41 -102 53 -133 52 -27 -1 -47 5 -62
19 -12 11 -29 18 -37 15 -8 -3 -17 1 -20 9 -3 8 -9 13 -13 13 -4 -1 -17 1 -28
5 -138 53 -180 68 -239 86 -38 11 -78 20 -90 19 -11 0 -25 0 -31 1 -5 1 -19 3
-30 4 -12 0 -19 8 -19 19 1 10 -5 17 -16 17 -10 0 -20 4 -22 9 -1 5 -29 11
-61 15 -33 3 -64 9 -70 14 -16 13 -168 54 -175 47 -10 -10 -32 18 -32 40 0 17
-6 22 -27 22 -16 0 -46 6 -68 13 -22 6 -68 11 -102 10 -61 -1 -63 0 -63 23 0
21 -6 25 -36 29 -19 2 -37 1 -39 -3 -5 -8 -93 -1 -109 9 -6 3 -35 5 -64 3 -47
-3 -53 -1 -52 16 4 32 0 43 -14 43 -8 0 -16 5 -18 12 -3 8 -9 8 -19 2 -8 -5
-45 -9 -84 -9 -59 0 -74 4 -95 23 -25 22 -65 29 -140 24 -19 -2 -68 0 -107 3
-70 6 -73 8 -73 33 0 20 -3 23 -12 14 -19 -19 -55 -15 -61 7 -6 23 -81 34
-247 36 -58 1 -139 9 -180 18 -53 11 -99 14 -157 10 l-83 -6 0 27 c0 30 0 29
-34 16 -20 -7 -26 -6 -26 4 0 10 -22 14 -91 15 -65 2 -96 6 -106 17 -17 17
-55 18 -71 2 -9 -9 -18 -8 -37 2 -18 10 -29 11 -33 4 -4 -6 -18 -13 -31 -17
-21 -5 -23 -3 -17 25 6 29 5 30 -22 25 -16 -3 -33 0 -43 9 -11 10 -56 15 -160
19 -79 3 -151 7 -159 8 -34 7 -60 19 -60 28 0 5 -34 9 -75 9 -48 0 -89 6 -113
16 -43 19 -138 35 -199 34 -30 -1 -49 6 -68 22 -19 16 -38 22 -78 22 -28 1
-57 4 -63 8 -6 4 -49 8 -97 9 -64 2 -87 6 -87 16 0 7 -4 13 -10 13 -5 0 -10
-7 -10 -15 0 -11 -12 -15 -44 -15 -42 0 -46 2 -57 34 l-12 33 -91 8 c-50 5
-119 7 -153 6 -50 -1 -63 2 -63 13 0 17 -69 40 -92 31 -8 -3 -36 3 -61 14 -39
17 -57 19 -112 12 -36 -4 -68 -4 -71 1 -3 4 -16 8 -28 8 -15 0 -26 7 -29 20
-5 19 -12 20 -121 18 -111 -3 -116 -2 -132 20 -11 15 -23 22 -35 19 -11 -3
-22 -1 -25 4 -3 5 -9 7 -12 5 -4 -2 -68 -1 -143 4 -128 8 -188 23 -210 53 -3
4 -24 5 -47 1 -27 -4 -47 -2 -56 5 -19 16 -198 25 -269 13 -32 -5 -60 -5 -63
-1 -2 4 -11 6 -18 3 -8 -3 -17 -1 -20 4 -3 5 -25 7 -49 5 -38 -5 -44 -2 -56
21 -15 27 -46 37 -116 36 -181 -2 -535 -9 -760 -15 -132 -3 -259 -6 -282 -6
-33 0 -50 -7 -75 -29 -23 -22 -43 -30 -68 -30 -20 0 -41 -5 -47 -11 -8 -8 -57
-12 -139 -11 -131 0 -154 -6 -154 -42 0 -19 -26 -21 -33 -3 -4 8 -8 9 -14 1
-4 -6 -32 -12 -62 -13 -56 -2 -66 -5 -66 -23 0 -6 -7 -14 -15 -18 -8 -4 -31
-16 -50 -26 -26 -14 -55 -19 -112 -19 -68 0 -78 -2 -78 -17 0 -10 -7 -18 -15
-18 -8 0 -15 -6 -15 -13 0 -11 -16 -13 -67 -11 -67 4 -68 3 -86 -27 -16 -29
-20 -31 -67 -27 -35 2 -50 -1 -50 -9 0 -7 -7 -13 -15 -13 -8 0 -15 -4 -15 -9
0 -12 -67 -34 -84 -28 -19 7 -36 -12 -36 -40 0 -16 -6 -23 -19 -23 -10 0 -24
-7 -31 -15 -8 -9 -22 -12 -42 -8 -29 6 -31 5 -25 -19 7 -25 5 -26 -55 -33 -60
-7 -138 -45 -138 -67 0 -16 -75 -78 -95 -78 -29 -1 -53 -22 -57 -50 -2 -19
-10 -26 -30 -28 -16 -2 -28 -9 -28 -17 0 -7 -19 -24 -42 -37 -28 -15 -44 -31
-46 -46 -2 -13 -10 -22 -21 -22 -20 0 -47 -43 -37 -59 5 -7 -12 -10 -49 -9
-41 1 -62 7 -79 22 -37 34 -85 58 -104 52 -31 -10 -96 12 -118 40 -19 23 -29
27 -77 26 -54 0 -56 1 -72 35 -15 30 -21 34 -46 31 -16 -3 -29 -1 -29 4 0 4
-3 7 -7 7 -41 -7 -69 3 -81 29 -8 18 -30 35 -68 52 -34 15 -59 34 -65 48 -5
12 -19 26 -31 31 -13 5 -22 12 -20 17 2 5 -10 12 -27 15 -35 7 -78 50 -86 88
-5 23 -10 27 -33 23 -20 -2 -37 5 -65 31 -32 28 -37 38 -32 60 9 32 -10 54
-51 59 -23 2 -33 12 -53 55 -14 29 -32 53 -40 53 -16 0 -37 24 -51 58 -5 12
-16 22 -25 22 -8 0 -24 20 -36 45 -12 25 -25 42 -30 39 -5 -3 -14 7 -19 21 -6
15 -30 47 -55 71 -25 24 -45 49 -45 57 0 24 -25 67 -42 73 -10 3 -15 11 -11
20 3 7 0 14 -6 14 -6 0 -11 7 -11 15 0 8 -20 35 -45 59 -25 25 -45 49 -45 55
0 28 -43 121 -56 121 -8 0 -14 5 -14 11 0 6 -11 20 -24 30 -14 11 -28 34 -31
52 -4 17 -13 39 -20 47 -7 8 -20 40 -29 70 -9 32 -30 71 -51 94 -34 39 -75
129 -75 166 0 12 -8 20 -22 22 -29 4 -69 75 -104 186 -14 46 -32 86 -40 89 -9
3 -12 13 -7 31 6 24 4 25 -26 19 -30 -6 -31 -5 -31 28 0 18 -5 37 -10 40 -6 4
-8 11 -4 16 3 6 0 18 -8 27 -9 11 -15 48 -17 107 -2 74 1 97 19 133 11 23 23
56 27 72 4 23 11 30 29 30 13 0 28 9 34 19 5 11 19 23 30 26 11 3 20 15 20 26
0 17 7 19 59 19 51 0 61 3 75 25 15 22 78 48 109 44 32 -4 44 4 56 36 7 19 17
33 22 30 5 -4 9 -1 9 4 0 6 10 11 21 11 12 0 29 8 38 18 9 9 30 24 46 32 16 9
31 25 33 35 2 11 13 30 24 42 12 12 18 29 15 37 -4 9 -3 16 1 16 8 0 9 80 1
95 -5 9 15 230 21 230 1 0 4 56 6 125 5 189 10 255 19 270 5 7 9 25 11 39 1
14 3 26 4 26 6 0 7 322 0 340 -6 16 -5 25 3 28 9 3 9 8 -1 20 -8 9 -11 21 -7
27 3 5 1 10 -5 10 -7 0 -9 12 -5 34 6 28 -6 96 -31 188 -3 9 -12 18 -21 20
-13 2 -17 15 -18 47 -1 28 -7 48 -18 56 -9 7 -17 23 -17 37 0 14 -8 34 -17 46
-10 11 -25 29 -34 40 -10 11 -20 33 -24 50 -4 22 -11 29 -24 25 -11 -3 -22 5
-31 21 -7 14 -19 26 -27 26 -7 0 -13 3 -13 8 0 12 -54 68 -72 75 -13 5 -18 17
-18 47 0 39 -1 40 -32 39 -48 -1 -101 12 -113 27 -5 7 -21 14 -34 16 -31 4
-84 99 -74 136 6 26 -14 72 -33 72 -15 0 -24 23 -24 60 0 19 -8 33 -25 44 -14
9 -25 22 -23 29 1 7 -4 22 -11 35 -7 14 -10 35 -6 53 4 18 3 29 -5 29 -7 0
-10 23 -9 66 1 36 -3 70 -9 76 -8 8 -7 21 4 47 10 24 13 51 9 82 -4 30 -3 49
5 54 6 4 8 15 5 24 -3 10 1 24 10 31 8 7 15 21 15 30 0 10 5 20 11 22 5 2 14
23 20 46 11 50 36 92 53 92 7 0 19 11 26 25 7 14 17 25 22 25 4 0 8 9 8 20 0
13 10 24 26 30 14 6 22 15 19 21 -4 6 2 13 14 16 12 3 21 13 21 24 0 13 7 19
23 19 12 1 41 20 67 45 31 31 53 45 73 45 15 0 27 5 27 10 0 6 9 10 20 10 13
0 20 7 20 19 0 21 26 31 86 31 32 0 48 7 80 36 39 35 40 35 106 30 60 -5 70
-4 89 15 13 13 24 17 32 11 18 -13 107 -16 107 -3 0 13 32 14 46 2 5 -6 27 -6
57 1 39 8 52 7 72 -6 13 -9 30 -16 37 -16 7 0 26 -16 41 -35 15 -19 35 -35 44
-35 15 0 14 -19 -4 -66 -4 -12 -3 -15 6 -10 17 11 67 -38 76 -73 10 -38 49
-121 57 -121 5 0 8 -20 8 -44 0 -48 24 -116 41 -116 7 0 10 -24 7 -67 -2 -47
1 -68 10 -70 6 -3 12 -17 12 -33 0 -16 7 -30 16 -34 8 -3 12 -10 9 -16 -3 -5
-1 -10 6 -10 7 0 9 -3 6 -6 -4 -4 3 -20 15 -36 16 -23 19 -39 15 -72 -4 -24
-2 -60 4 -80 7 -27 7 -41 -1 -51 -7 -8 -9 -19 -5 -25 9 -15 14 -111 17 -319 3
-141 5 -165 20 -174 15 -10 15 -13 -3 -39 -11 -15 -28 -28 -38 -28 -16 0 -18
-11 -18 -102 -1 -57 -4 -116 -7 -133 -3 -16 -1 -60 5 -96 5 -36 11 -122 12
-191 2 -117 1 -126 -18 -134 -22 -10 -37 -78 -24 -110 4 -11 5 -54 2 -96 -4
-55 -3 -78 6 -78 6 0 11 -11 11 -25 0 -16 6 -25 15 -25 12 0 15 -11 15 -47 0
-27 2 -93 4 -148 3 -55 5 -121 5 -147 1 -35 7 -54 25 -73 14 -15 22 -33 19
-41 -3 -8 -1 -14 3 -14 5 0 10 -30 11 -67 2 -59 5 -71 27 -90 20 -16 26 -32
26 -60 0 -40 18 -74 57 -108 13 -12 23 -32 23 -46 0 -14 11 -36 25 -49 13 -12
22 -27 19 -31 -3 -5 0 -9 5 -9 6 0 11 -9 11 -20 0 -11 11 -27 24 -35 13 -9 26
-28 29 -43 3 -15 16 -31 29 -37 13 -5 30 -25 38 -43 15 -33 15 -33 78 -30 45
2 62 0 62 -10 0 -18 49 -4 80 23 14 12 42 32 63 44 20 13 37 26 37 30 0 4 18
26 40 50 22 23 40 47 40 53 0 6 7 7 16 4 11 -4 18 1 21 14 3 11 9 20 13 20 17
0 50 39 44 53 -3 9 2 31 10 49 14 28 16 76 17 289 0 139 -1 270 -1 289 -1 19
-1 64 0 100 3 129 -2 336 -10 378 -4 23 -4 44 0 47 4 3 3 26 -2 52 -5 27 -9
104 -9 171 1 68 -4 132 -9 142 -7 13 -6 21 4 29 10 8 11 23 5 59 -13 73 -25
313 -16 319 4 3 6 17 3 31 -8 35 -19 189 -18 227 4 89 1 135 -11 165 -6 16
-17 112 -16 145 0 11 0 44 0 73 0 28 4 64 10 78 7 20 6 31 -4 43 -23 26 -26
48 -11 69 12 17 12 26 -2 64 -8 23 -12 53 -9 65 3 12 1 33 -4 47 -6 14 -6 37
-2 54 5 16 5 36 0 45 -5 8 -11 54 -13 100 -2 47 -6 90 -10 95 -3 5 1 28 8 50
8 22 13 42 11 44 -2 2 -6 36 -9 75 -2 40 -7 77 -10 82 -4 5 -2 12 4 16 6 4 7
11 4 17 -11 17 -5 181 6 192 15 15 12 57 -4 75 -13 15 -25 105 -15 115 2 2 3
74 1 160 l-3 156 -39 40 c-22 22 -46 40 -55 40 -9 0 -14 4 -11 9 5 8 -30 22
-59 25 -6 1 -21 11 -34 23 -14 13 -43 24 -75 28 -28 4 -60 15 -71 25 -27 23
-79 32 -110 18 -19 -8 -28 -8 -40 2 -16 14 -35 17 -110 23 -22 2 -52 7 -66 11
-19 5 -31 3 -44 -10 -14 -14 -44 -19 -169 -25 -83 -4 -162 -5 -176 -2 -20 3
-29 -2 -42 -25 -17 -28 -74 -52 -125 -52 -10 0 -24 -9 -31 -20 -15 -25 -92
-29 -92 -5 0 23 -36 18 -64 -9 -19 -16 -42 -25 -83 -29 -34 -4 -62 -12 -69
-21 -16 -22 -59 -36 -114 -36 -30 0 -54 -6 -64 -15 -16 -17 -36 -20 -36 -6 0
23 -32 18 -60 -9 -17 -17 -38 -30 -48 -30 -9 0 -26 -7 -36 -15 -22 -16 -66
-20 -66 -6 0 5 -20 15 -45 22 -28 8 -52 24 -66 44 -13 16 -29 34 -36 38 -7 5
-11 12 -8 17 3 5 1 11 -5 15 -5 3 -10 21 -10 39 0 18 -7 48 -17 66 -13 26 -14
39 -5 62 5 15 7 28 4 28 -4 0 -13 14 -21 31 -11 25 -11 36 -2 51 14 23 4 68
-17 68 -8 0 -12 3 -9 7 4 3 2 12 -4 19 -12 15 8 74 26 74 5 0 2 7 -8 14 -15
11 -18 29 -19 93 -1 85 8 212 15 220 3 2 1 19 -4 36 -13 46 -11 94 5 130 8 18
17 52 20 77 3 25 7 63 10 85 2 22 7 89 10 148 3 65 10 114 17 123 10 13 21
114 20 194 -2 120 1 206 8 255 6 42 5 80 -5 126 -14 71 -14 314 0 338 11 17
81 9 105 -13 10 -9 35 -16 58 -16 23 0 43 -5 45 -11 4 -12 16 -12 131 -3 58 5
77 3 77 -6 0 -9 10 -11 30 -7 19 4 34 1 44 -8 8 -8 19 -15 25 -15 6 0 11 -3
11 -8 0 -4 13 -13 29 -20 24 -11 54 -11 144 -3 104 10 120 9 168 -8 100 -35
129 -42 139 -36 5 3 10 -1 10 -10 0 -14 6 -16 28 -10 15 3 29 11 30 16 5 13
43 11 88 -5 27 -9 47 -10 64 -4 14 5 34 6 45 3 63 -20 89 -23 116 -13 16 5 29
14 29 19 0 12 83 12 95 0 11 -11 113 -14 218 -8 40 3 67 1 67 -5 0 -6 7 -8 15
-4 8 3 15 0 15 -7 0 -8 3 -7 9 2 13 20 162 24 224 6 26 -8 47 -10 47 -5 0 12
90 17 90 5 0 -5 7 -2 14 8 11 15 19 16 34 8 11 -6 22 -8 25 -5 3 3 45 5 93 5
52 -1 93 4 101 10 9 8 34 10 72 6 52 -6 60 -4 73 14 11 17 29 23 102 30 53 5
94 5 105 0 11 -6 32 -6 57 1 21 5 74 15 117 21 42 6 77 14 77 19 0 26 64 36
270 42 209 7 217 8 289 37 57 24 81 29 111 24 23 -4 41 -2 45 4 3 6 19 11 35
11 17 0 33 7 38 17 12 20 111 35 230 35 65 -1 90 4 117 19 29 18 61 23 185 31
8 0 33 -2 55 -6 37 -7 41 -5 60 24 27 43 55 53 154 56 45 2 89 8 97 15 18 15
74 29 152 39 53 6 69 13 92 39 l29 31 120 0 c100 0 121 3 121 15 0 8 12 17 28
21 15 3 32 7 37 9 6 2 35 3 65 2 l55 -2 2 -95z"/>
<path d="M15460 23580 c0 -5 5 -10 10 -10 6 0 10 5 10 10 0 6 -4 10 -10 10 -5
0 -10 -4 -10 -10z"/>
<path d="M14025 23280 c-3 -5 -1 -10 4 -10 6 0 11 5 11 10 0 6 -2 10 -4 10 -3
0 -8 -4 -11 -10z"/>
<path d="M13685 23130 c3 -5 14 -10 23 -10 15 0 15 2 2 10 -20 13 -33 13 -25
0z"/>
<path d="M17168 21633 c7 -3 16 -2 19 1 4 3 -2 6 -13 5 -11 0 -14 -3 -6 -6z"/>
<path d="M17268 21633 c-9 -2 -19 -10 -22 -18 -4 -12 -1 -12 19 -3 14 6 25 15
25 20 0 4 -1 7 -2 7 -2 -1 -10 -3 -20 -6z"/>
<path d="M15559 16816 c-7 -7 -197 -37 -245 -39 -39 -2 -105 -29 -132 -54 -18
-17 -58 -26 -83 -20 -11 3 -38 -1 -60 -8 -21 -8 -39 -11 -39 -8 0 4 -5 2 -12
-5 -7 -7 -26 -12 -44 -12 -71 0 -132 -29 -145 -69 -4 -11 -23 -18 -55 -20 -6
-1 -30 -18 -54 -38 -24 -21 -48 -38 -54 -39 -6 0 -24 -2 -40 -2 -29 -2 -29 -3
-10 -17 19 -14 18 -15 -6 -35 -14 -11 -31 -20 -39 -20 -8 0 -11 -7 -8 -19 2
-10 -3 -25 -12 -33 -27 -25 -61 -68 -61 -78 0 -6 9 -10 20 -10 11 0 20 -7 20
-16 0 -8 -4 -13 -9 -10 -5 3 -13 0 -19 -7 -14 -17 -20 -86 -7 -90 6 -3 2 -19
-10 -42 -18 -35 -18 -38 -2 -50 18 -13 23 -60 7 -70 -7 -4 -7 -13 0 -26 8 -14
8 -21 -2 -24 -9 -4 -13 -21 -12 -52 1 -26 -4 -56 -12 -68 -7 -11 -16 -36 -18
-55 -3 -19 -12 -49 -20 -66 -13 -25 -15 -46 -8 -108 7 -67 8 -119 1 -152 -5
-28 3 -52 20 -57 12 -3 21 -17 25 -40 5 -26 19 -46 52 -73 35 -29 42 -39 33
-50 -6 -8 -8 -14 -3 -14 5 -1 41 -3 81 -6 55 -5 79 -2 104 10 18 9 40 16 50
16 10 0 21 5 24 11 5 7 59 9 166 6 141 -5 161 -7 185 -26 15 -12 37 -21 49
-21 48 0 85 -13 85 -29 0 -13 12 -17 58 -18 120 -6 187 -15 197 -27 11 -14 71
-31 94 -27 8 1 25 -3 38 -10 19 -10 28 -10 43 -1 11 7 44 12 74 12 30 0 57 4
61 9 3 5 18 12 34 16 16 3 39 17 51 31 13 13 33 24 45 24 15 0 28 12 41 35 10
19 31 44 47 55 21 17 26 25 17 35 -14 17 -21 75 -9 75 6 0 5 8 -1 21 -18 32
-14 224 4 251 11 15 14 34 10 60 -4 25 -2 43 7 54 7 9 12 35 10 65 -2 33 2 54
12 64 10 10 14 27 10 53 -3 25 1 50 11 70 9 17 16 44 16 60 0 15 5 33 10 38 6
6 10 24 10 40 0 16 0 59 -1 97 0 37 -3 67 -7 67 -4 0 -7 24 -7 52 -1 49 -10
83 -38 146 -6 13 -25 37 -43 54 -22 22 -31 39 -28 54 3 17 -2 23 -21 28 -16 4
-23 11 -19 18 4 6 3 8 -4 4 -6 -3 -27 10 -48 29 -20 19 -39 35 -41 35 -3 0
-17 9 -32 19 -15 11 -42 19 -59 19 -18 -1 -40 6 -50 15 -12 11 -22 13 -34 6
-10 -6 -26 -5 -43 1 -26 10 -108 14 -116 6z"/>
<path d="M18200 16708 c-30 -4 -67 -15 -82 -23 -16 -9 -28 -13 -28 -8 0 4 -5
1 -10 -7 -5 -8 -14 -16 -20 -16 -5 -1 -16 -2 -22 -3 -30 -3 -43 -22 -47 -65
-1 -4 -8 -6 -16 -2 -8 3 -21 -1 -29 -9 -7 -8 -16 -11 -20 -8 -3 3 -11 1 -18
-4 -7 -6 -21 -9 -30 -8 -10 2 -17 0 -16 -3 5 -20 -44 -100 -69 -112 -15 -8
-29 -15 -31 -16 -1 -1 2 -13 8 -28 8 -21 7 -28 -5 -32 -8 -4 -15 -13 -15 -20
0 -8 -6 -17 -14 -20 -10 -4 -14 -16 -11 -37 2 -17 -1 -35 -7 -38 -9 -6 -9 -14
0 -34 7 -15 9 -32 5 -38 -9 -14 -14 -49 -16 -114 -1 -29 -5 -53 -9 -53 -4 0
-8 -17 -8 -37 0 -21 -7 -46 -15 -57 -11 -15 -13 -48 -8 -171 4 -102 3 -154 -5
-158 -6 -5 -8 -30 -5 -67 5 -47 3 -61 -9 -65 -13 -5 -13 -12 -4 -38 16 -43 38
-77 52 -77 7 0 14 -9 17 -20 3 -11 13 -23 24 -27 10 -3 30 -19 46 -35 15 -15
34 -28 42 -28 8 0 36 -13 62 -30 26 -16 59 -30 73 -30 31 0 90 -19 90 -28 0
-10 253 -8 268 1 7 5 12 4 12 -3 0 -6 5 -8 11 -4 7 4 90 8 186 10 135 3 180 7
205 20 18 9 65 18 112 20 110 6 214 24 227 41 6 7 18 13 25 13 8 0 14 4 14 10
0 5 16 12 35 16 21 4 43 17 55 33 11 14 26 33 33 41 8 8 22 31 32 50 10 19 22
37 26 41 5 3 13 27 18 54 5 27 17 55 27 62 12 9 18 29 20 69 2 31 8 72 14 90
6 17 13 121 15 229 3 108 7 200 10 205 3 5 1 20 -5 34 -6 17 -6 27 1 32 5 3 9
13 7 22 -1 10 1 22 5 29 12 19 -4 43 -29 43 -21 0 -24 5 -24 38 0 48 -10 83
-21 76 -5 -3 -9 -1 -9 4 0 14 -57 33 -75 26 -11 -5 -15 1 -15 20 0 14 5 26 10
26 6 0 10 7 10 16 0 11 -6 14 -20 9 -11 -3 -20 -2 -20 3 0 5 -13 15 -30 22
-16 7 -36 23 -45 36 -8 13 -23 24 -33 24 -10 0 -25 8 -34 18 -33 34 -44 38
-123 40 -80 1 -152 10 -169 20 -5 3 -38 5 -73 4 -49 -1 -63 2 -63 13 0 10 -10
15 -29 15 -16 0 -36 3 -45 6 -11 4 -16 1 -16 -10 0 -17 -46 -23 -52 -7 -4 13
-29 16 -61 6 -19 -5 -37 -3 -53 6 -20 10 -31 10 -59 0 -21 -7 -41 -9 -52 -3
-10 5 -43 5 -73 0z"/>
<path d="M15012 14039 c-19 -4 -39 -12 -45 -18 -6 -6 -29 -11 -50 -11 -30 0
-44 -6 -59 -25 -11 -14 -28 -25 -38 -25 -9 0 -23 -7 -30 -15 -7 -8 -22 -15
-34 -15 -21 0 -77 -52 -89 -84 -4 -9 -17 -16 -30 -16 -27 0 -97 -76 -97 -104
0 -9 -7 -19 -15 -22 -8 -4 -15 -12 -15 -19 0 -7 -7 -18 -15 -25 -8 -7 -15 -20
-15 -30 0 -10 -7 -20 -15 -24 -8 -3 -15 -15 -15 -26 0 -12 5 -18 10 -15 6 3
10 0 10 -7 0 -8 -13 -22 -30 -31 -26 -16 -30 -24 -31 -65 -1 -26 0 -59 1 -74
1 -19 -3 -28 -13 -28 -17 0 -27 -21 -27 -56 0 -13 -4 -24 -8 -24 -5 0 -7 -102
-5 -227 2 -126 4 -244 4 -263 0 -19 7 -42 16 -52 10 -11 14 -30 11 -58 -3 -30
0 -39 9 -36 8 4 13 -3 13 -17 1 -12 12 -31 27 -42 14 -11 37 -32 51 -47 14
-15 33 -30 43 -33 11 -4 19 -12 19 -19 0 -24 29 -39 75 -38 32 1 52 -5 72 -21
42 -33 73 -48 83 -42 6 4 10 2 10 -2 0 -5 15 -8 33 -6 71 5 246 5 256 -1 6 -4
30 -2 53 5 24 7 63 13 88 15 25 2 68 7 95 13 28 5 62 12 76 14 14 3 50 -3 80
-13 56 -19 83 -18 133 7 15 8 48 15 73 15 31 0 51 6 64 19 10 10 23 19 27 19
5 0 19 12 33 26 13 14 39 32 57 39 18 8 31 20 30 27 -2 7 7 14 18 16 16 2 24
13 29 40 4 20 13 45 21 56 8 11 14 31 14 43 0 12 17 49 38 82 35 54 39 67 45
147 4 48 2 93 -3 99 -5 6 -5 17 0 25 5 8 5 21 1 29 -8 17 -7 83 1 97 3 5 4 20
2 34 -2 14 -10 88 -18 165 -17 165 -24 201 -42 216 -8 6 -17 29 -20 50 -4 22
-10 39 -15 39 -5 0 -9 6 -9 14 0 7 -13 29 -30 47 -16 19 -30 37 -30 41 0 3
-20 19 -45 35 -25 15 -45 31 -45 35 0 11 -81 31 -124 29 -33 -1 -38 2 -33 18
6 23 1 24 -130 41 -45 6 -108 19 -140 29 -32 11 -85 22 -118 25 -33 3 -89 9
-125 12 -36 4 -69 10 -75 14 -5 4 -25 3 -43 -1z"/>
<path d="M18110 13942 c-19 -10 -41 -23 -48 -29 -7 -7 -17 -13 -21 -13 -6 0
-59 -50 -116 -110 -5 -6 -22 -20 -37 -31 -25 -18 -28 -27 -28 -76 0 -44 -5
-61 -25 -85 -16 -19 -25 -43 -26 -66 -2 -50 -5 -93 -16 -180 -5 -40 -6 -76 -2
-80 11 -12 19 -58 12 -66 -10 -10 -11 -49 -2 -68 5 -9 5 -19 1 -22 -5 -3 -5
-31 -2 -63 4 -32 2 -73 -4 -91 -7 -24 -6 -43 3 -68 7 -19 9 -43 6 -55 -4 -11
0 -30 9 -44 9 -14 16 -45 16 -74 0 -27 4 -51 9 -53 6 -1 12 -22 15 -45 3 -24
11 -55 18 -70 12 -25 20 -29 83 -36 39 -4 96 -9 127 -10 34 -2 64 -9 75 -18
33 -29 57 -34 173 -36 158 -3 283 -13 296 -24 6 -5 41 -10 78 -10 36 -1 68 -5
71 -9 3 -4 24 -1 47 7 23 8 91 17 152 21 104 7 111 8 114 29 4 25 25 45 50 48
9 1 31 7 47 14 17 7 42 15 57 18 19 4 29 13 33 34 5 22 61 108 84 129 3 3 7
17 8 32 1 15 8 42 17 60 8 18 14 45 14 59 0 15 10 40 23 58 19 26 22 42 22
108 -1 43 3 83 7 88 10 13 6 284 -4 308 -5 10 -3 23 4 32 7 8 9 23 5 32 -4 10
-8 44 -10 76 -2 42 -9 65 -23 80 -11 12 -22 31 -24 42 -2 10 -13 22 -24 25
-12 3 -34 20 -49 38 -15 17 -31 32 -37 32 -5 0 -29 16 -53 36 -24 19 -47 35
-52 34 -20 -3 -43 10 -43 24 0 10 -8 16 -21 16 -11 0 -28 4 -37 9 -9 5 -35 11
-57 14 -54 6 -69 10 -77 21 -3 5 -127 11 -275 12 -147 2 -326 5 -398 8 -107 3
-136 1 -165 -12z"/>
<path d="M18405 11040 c-3 -6 1 -7 9 -4 18 7 21 14 7 14 -6 0 -13 -4 -16 -10z"/>
<path d="M9215 12010 c-3 -5 -1 -10 4 -10 6 0 11 5 11 10 0 6 -2 10 -4 10 -3
0 -8 -4 -11 -10z"/>
</g>
</svg>
