<?xml version="1.0" standalone="no"?>
<!DOCTYPE svg PUBLIC "-//W3C//DTD SVG 20010904//EN"
 "http://www.w3.org/TR/2001/REC-SVG-20010904/DTD/svg10.dtd">
<svg version="1.0" xmlns="http://www.w3.org/2000/svg"
 width="41.000000pt" height="40.000000pt" viewBox="0 0 41.000000 40.000000"
 preserveAspectRatio="xMidYMid meet">

<g transform="translate(0.000000,40.000000) scale(0.100000,-0.100000)"
fill="rgba(255,0,0,0.1)" stroke="none">
<path d="M180 392 c-55 -6 -72 -14 -110 -48 -78 -71 -83 -195 -11 -278 45 -51
153 -72 224 -42 59 24 117 111 117 176 0 58 -52 144 -104 172 -26 14 -83 24
-116 20z m137 -54 c20 -16 16 -24 -17 -38 -45 -19 -50 -34 -8 -27 48 7 67 -5
50 -34 -8 -12 -12 -43 -11 -72 3 -42 0 -53 -14 -55 -10 -2 -17 3 -17 12 0 21
-20 20 -36 -2 -12 -16 -13 -16 -19 1 -8 18 -35 24 -35 7 0 -5 -7 -10 -15 -10
-11 0 -15 14 -17 60 -1 33 -2 68 -2 78 -1 12 6 16 22 15 16 -2 22 2 22 16 0
14 5 18 19 14 10 -3 22 1 26 7 5 8 -4 11 -33 9 -48 -4 -60 4 -41 27 10 13 23
15 63 9 28 -3 56 -11 63 -17z m-169 -29 c-17 -11 -65 -11 -72 0 -8 13 15 29
49 33 32 3 48 -18 23 -33z m6 -43 c-10 -25 -94 -37 -94 -13 0 22 11 27 56 27
33 0 42 -3 38 -14z m-4 -42 c0 -3 -9 -17 -20 -31 -24 -30 -25 -43 -6 -43 8 0
17 10 19 23 3 16 5 13 6 -10 1 -23 -3 -33 -14 -33 -8 0 -15 -4 -15 -9 0 -10
109 -25 177 -25 38 1 41 -1 32 -17 -18 -35 -42 -39 -124 -22 -59 12 -83 13
-96 4 -15 -9 -22 -7 -39 11 -13 14 -17 25 -11 31 7 7 6 17 0 29 -5 10 -7 23
-4 28 12 19 24 10 28 -22 l4 -33 1 36 c2 30 -2 38 -19 42 -33 9 -17 31 27 38
21 3 42 7 47 8 4 0 7 -2 7 -5z"/>
<path d="M205 231 c-3 -5 -1 -12 5 -16 12 -7 30 2 30 16 0 12 -27 12 -35 0z"/>
<path d="M265 231 c-7 -12 12 -24 25 -16 11 7 4 25 -10 25 -5 0 -11 -4 -15 -9z"/>
<path d="M205 180 c-3 -5 3 -10 14 -10 12 0 21 5 21 10 0 6 -6 10 -14 10 -8 0
-18 -4 -21 -10z"/>
<path d="M270 175 c0 -9 6 -12 15 -9 8 4 15 10 15 15 0 5 -7 9 -15 9 -8 0 -15
-7 -15 -15z"/>
</g>
</svg>
